<svg xmlns="http://www.w3.org/2000/svg" xmlns:xlink="http://www.w3.org/1999/xlink" xmlns:lucid="lucid" width="1850.33" height="2300"><g transform="translate(-25.433070866141634 -140)" lucid:page-tab-id="0_0"><path d="M0 0h1870.87v2581.67H0z" fill="#fff"/><path d="M1420 1426h240v60h-240z" fill="none"/><path d="M180 166a6 6 0 0 1 6-6h1468a6 6 0 0 1 6 6v2248a6 6 0 0 1-6 6H186a6 6 0 0 1-6-6z" stroke="#3a414a" stroke-width="8" fill="#fff"/><path d="M120.18 1064.75c0 13.67-11.08 24.75-24.75 24.75s-24.75-11.08-24.75-24.75S81.76 1040 95.43 1040s24.75 11.08 24.75 24.75z" stroke="#3a414a" stroke-width="7" fill="#fff"/><path d="M95.43 1089.5v63.3a20.74 20.74 0 0 0 3.2 11.07l46.8 74.13m-50-79.2l-50 79.2m0-123.75h100" stroke="#3a414a" stroke-width="7" fill="none"/><path d="M45.43 1046a6 6 0 0 1 6-6h88a6 6 0 0 1 6 6v208a6 6 0 0 1-6 6h-88a6 6 0 0 1-6-6z" fill="none"/><use xlink:href="#a" transform="matrix(1,0,0,1,-34.566929133858366,1238) translate(108.42592592592592 17.77777777777778)"/><path d="M1805.18 1099.75c0 10.9-8.84 19.75-19.75 19.75-10.9 0-19.75-8.84-19.75-19.75 0-10.9 8.85-19.75 19.75-19.75s19.75 8.84 19.75 19.75z" stroke="#3a414a" stroke-width="7" fill="#fff"/><path d="M1785.43 1119.5v49.3a20.7 20.7 0 0 0 3.2 11.07l36.8 58.13m-40-63.2l-40 63.2m0-98.75h80" stroke="#3a414a" stroke-width="7" fill="none"/><path d="M1745.43 1086a6 6 0 0 1 6-6h68a6 6 0 0 1 6 6v168a6 6 0 0 1-6 6h-68a6 6 0 0 1-6-6z" fill="none"/><use xlink:href="#b" transform="matrix(1,0,0,1,1665.4330708661416,1238) translate(91.69753086419753 17.77777777777778)"/><path d="M1015.43 280c0 33.14-35.8 60-80 60-44.18 0-80-26.86-80-60s35.82-60 80-60c44.2 0 80 26.86 80 60z" stroke="#3a414a" stroke-width="4" fill="#fff"/><use xlink:href="#c" transform="matrix(1,0,0,1,855.4330708661416,220) translate(47.178148148148146 66.5111111111111)"/><path d="M1015.43 440c0 33.14-35.8 60-80 60-44.18 0-80-26.86-80-60s35.82-60 80-60c44.2 0 80 26.86 80 60z" stroke="#3a414a" stroke-width="4" fill="#fff"/><use xlink:href="#d" transform="matrix(1,0,0,1,855.4330708661416,380) translate(27.123518518518516 66.5111111111111)"/><path d="M100.93 1150.32H224a6 6 0 0 0 6-6V286a6 6 0 0 1 6-6h615.43M100.98 1150.32h-5.05" stroke="#3a414a" stroke-width="4" fill="none"/><path d="M853.43 279.97v.45l.07 1.58h-2.12v-4h2.12z" stroke="#3a414a" stroke-width=".05" fill="#3a414a"/><path d="M1019.43 280H1614a6 6 0 0 1 6 6v878a6 6 0 0 0 6 6h153.97" stroke="#3a414a" stroke-width="4" fill="none"/><path d="M1019.48 282h-2.1l.05-1.97v-.45l-.06-1.58h2.1z" stroke="#3a414a" stroke-width=".05" fill="#3a414a"/><path d="M1779.9 1170h5.07M1019.43 440H1574a6 6 0 0 1 6 6v718a6 6 0 0 0 6 6h193.97" stroke="#3a414a" stroke-width="4" fill="none"/><path d="M1019.48 442h-2.1l.05-1.97v-.45l-.06-1.58h2.1z" stroke="#3a414a" stroke-width=".05" fill="#3a414a"/><path d="M1779.9 1170h5.07" stroke="#3a414a" stroke-width="4" fill="none"/><path d="M600 640c0 33.14-35.82 60-80 60s-80-26.86-80-60 35.82-60 80-60 80 26.86 80 60z" stroke="#3a414a" stroke-width="4" fill="#fff"/><use xlink:href="#e" transform="matrix(1,0,0,1,439.9999999999999,580) translate(35.26487654320989 66.5111111111111)"/><path d="M622.66 835c0 38.66-44.77 70-100 70s-100-31.34-100-70 44.77-70 100-70 100 31.34 100 70z" stroke="#3a414a" stroke-width="4" fill="#fff"/><use xlink:href="#f" transform="matrix(1,0,0,1,422.65625,765) translate(71.21148148148148 60.886111111111106)"/><use xlink:href="#g" transform="matrix(1,0,0,1,422.65625,765) translate(35.135555555555584 93.15277777777776)"/><path d="M602.66 1020c0 33.14-35.82 60-80 60-44.2 0-80-26.86-80-60s35.8-60 80-60c44.18 0 80 26.86 80 60z" stroke="#3a414a" stroke-width="4" fill="#fff"/><use xlink:href="#h" transform="matrix(1,0,0,1,442.65625,960) translate(37.46827160493828 66.5111111111111)"/><path d="M520 1450c0 33.14-35.82 60-80 60s-80-26.86-80-60 35.82-60 80-60 80 26.86 80 60z" stroke="#3a414a" stroke-width="4" fill="#fff"/><use xlink:href="#i" transform="matrix(1,0,0,1,360,1390) translate(24.845432098765453 47.761111111111106)"/><use xlink:href="#j" transform="matrix(1,0,0,1,360,1390) translate(27.011481481481493 80.02777777777777)"/><path d="M664.7 1290c0 38.66-45.83 70-102.36 70-56.52 0-102.34-31.34-102.34-70s45.82-70 102.34-70c56.53 0 102.35 31.34 102.35 70z" stroke="#3a414a" stroke-width="4" fill="#fff"/><use xlink:href="#k" transform="matrix(1,0,0,1,460,1220) translate(23.70561728395064 60.886111111111106)"/><use xlink:href="#l" transform="matrix(1,0,0,1,460,1220) translate(88.7617901234568 60.886111111111106)"/><use xlink:href="#m" transform="matrix(1,0,0,1,460,1220) translate(61.0367901234568 93.15277777777776)"/><path d="M950 1800c0 33.14-47 60-105 60s-105-26.86-105-60 47-60 105-60 105 26.86 105 60z" stroke="#3a414a" stroke-width="4" fill="#fff"/><use xlink:href="#n" transform="matrix(1,0,0,1,740,1740) translate(52.01148148148149 66.5111111111111)"/><path d="M1260 700c0 33.14-40.3 60-90 60s-90-26.86-90-60 40.3-60 90-60 90 26.86 90 60z" stroke="#3a414a" stroke-width="4" fill="#fff"/><use xlink:href="#o" transform="matrix(1,0,0,1,1080,640) translate(66.88802469135803 47.761111111111106)"/><use xlink:href="#p" transform="matrix(1,0,0,1,1080,640) translate(43.73370370370371 80.02777777777777)"/><path d="M654.7 1600c0 33.14-40.3 60-90 60-49.72 0-90-26.86-90-60s40.28-60 90-60c49.7 0 90 26.86 90 60z" stroke="#3a414a" stroke-width="4" fill="#fff"/><use xlink:href="#q" transform="matrix(1,0,0,1,474.6874999999999,1540) translate(25.060864197530883 66.5111111111111)"/><use xlink:href="#r" transform="matrix(1,0,0,1,474.6874999999999,1540) translate(80.33246913580247 66.5111111111111)"/><use xlink:href="#s" transform="matrix(1,0,0,1,474.6874999999999,1540) translate(110.209012345679 66.5111111111111)"/><path d="M418.66 835H386a6 6 0 0 0-6 6v303.1a6 6 0 0 1-6 6H98.37" stroke="#3a414a" stroke-width="4" fill="none"/><path d="M420.66 835v1.1l.05.9h-2.1v-4h2.1z" stroke="#3a414a" stroke-width=".05" fill="#3a414a"/><path d="M98.43 1150.1h-2.06M438.66 1020H420a6 6 0 0 0-6 6v118a6 6 0 0 1-6 6H100.93" stroke="#3a414a" stroke-width="4" fill="none"/><path d="M440.66 1019.97v.45l.06 1.58h-2.12v-4h2.12z" stroke="#3a414a" stroke-width=".05" fill="#3a414a"/><path d="M100.98 1150h-5.05M851.43 440H286a6 6 0 0 0-6 6v698.32a6 6 0 0 1-6 6H100.93" stroke="#3a414a" stroke-width="4" fill="none"/><path d="M853.43 439.97v.45l.07 1.58h-2.12v-4h2.12z" stroke="#3a414a" stroke-width=".05" fill="#3a414a"/><path d="M100.98 1150.32h-5.05M604 640h90a6 6 0 0 1 6 6v526a6 6 0 0 1-6 6H568.34a6 6 0 0 0-6 6v32" stroke="#3a414a" stroke-width="4" fill="none"/><path d="M604.05 642h-2.1l.05-1.97v-.45l-.06-1.58h2.1zM564.34 1218.05l-1.98-.05h-1.18l-.84.03v-2.08h4z" stroke="#3a414a" stroke-width=".05" fill="#3a414a"/><path d="M626.66 835h32a6 6 0 0 1 6 6v331a6 6 0 0 1-6 6h-90.32a6 6 0 0 0-6 6v32" stroke="#3a414a" stroke-width="4" fill="none"/><path d="M626.7 837h-2.1l.06-2v-1.1l-.06-.9h2.1zM564.34 1218.05l-1.98-.05h-1.18l-.84.03v-2.08h4z" stroke="#3a414a" stroke-width=".05" fill="#3a414a"/><path d="M606.66 1020H624a6 6 0 0 1 6 6v146a6 6 0 0 1-6 6h-55.66a6 6 0 0 0-6 6v32" stroke="#3a414a" stroke-width="4" fill="none"/><path d="M606.7 1022h-2.1l.06-1.97v-.45l-.07-1.58h2.1zM564.34 1218.05l-1.98-.05h-1.18l-.84.03v-2.08h4z" stroke="#3a414a" stroke-width=".05" fill="#3a414a"/><path d="M456 1290h-7.66a6 6 0 0 0-6 6v90.07" stroke="#3a414a" stroke-width="4" fill="none"/><path d="M458 1289.98v.42l.05 1.6h-2.1v-4h2.1zM444.34 1388.13l-4-.12v-1.98h4z" stroke="#3a414a" stroke-width=".05" fill="#3a414a"/><path d="M562.34 1364V1536.02" stroke="#3a414a" stroke-width="4" fill="none"/><path d="M562.32 1362h1.2l.82-.03v2.08h-4v-2.1zM564.34 1538l-1.8.02-2.2.1v-2.15h4z" stroke="#3a414a" stroke-width=".05" fill="#3a414a"/><path d="M470.7 1600h-15.15a6 6 0 0 1-6-6v-80.45" stroke="#3a414a" stroke-width="4" fill="none"/><path d="M472.7 1599.98v.7l.05 1.32h-2.1v-4h2.1zM451.55 1513.6h-4v-1.86h.2l3.8-.4z" stroke="#3a414a" stroke-width=".05" fill="#3a414a"/><path d="M657.34 1800c0 33.14-42.53 60-95 60-52.46 0-95-26.86-95-60s42.54-60 95-60c52.47 0 95 26.86 95 60z" stroke="#3a414a" stroke-width="4" fill="#fff"/><use xlink:href="#t" transform="matrix(1,0,0,1,467.34375,1740) translate(34.54234567901235 66.5111111111111)"/><use xlink:href="#u" transform="matrix(1,0,0,1,467.34375,1740) translate(118.12197530864198 66.5111111111111)"/><path d="M564.7 1664v72.06" stroke="#3a414a" stroke-width="4" fill="none"/><path d="M564.67 1662l2.02-.02v2.07h-4v-2.1zM566.7 1738.1l-4-.1v-2h4z" stroke="#3a414a" stroke-width=".05" fill="#3a414a"/><path d="M661.34 1800H736" stroke="#3a414a" stroke-width="4" fill="none"/><path d="M661.4 1802h-2.1l.04-2-.04-1.8v-.2h2.1zM738.04 1798.24L738 1800l.04 1.74.02.26h-2.1v-4h2.1z" stroke="#3a414a" stroke-width=".05" fill="#3a414a"/><path d="M845 1736V544a6 6 0 0 0-6-6H526a6 6 0 0 0-6 6v32" stroke="#3a414a" stroke-width="4" fill="none"/><path d="M847 1738.05l-2-.05-2 .05v-2.1h4zM522 578.06l-1.97-.06h-.97l-1.06.05v-2.1h4z" stroke="#3a414a" stroke-width=".05" fill="#3a414a"/><path d="M436 640H336a6 6 0 0 0-6 6v498.32a6 6 0 0 1-6 6H100.93" stroke="#3a414a" stroke-width="4" fill="none"/><path d="M438 639.97v.45l.06 1.58h-2.1v-4h2.1z" stroke="#3a414a" stroke-width=".05" fill="#3a414a"/><path d="M100.98 1150.32h-5.05" stroke="#3a414a" stroke-width="4" fill="none"/><path d="M657.34 2120c0 33.14-40.3 60-90 60s-90-26.86-90-60 40.3-60 90-60 90 26.86 90 60z" stroke="#3a414a" stroke-width="4" fill="#fff"/><use xlink:href="#v" transform="matrix(1,0,0,1,477.34375,2060) translate(61.211481481481485 47.761111111111106)"/><use xlink:href="#w" transform="matrix(1,0,0,1,477.34375,2060) translate(52.024444444444455 80.02777777777777)"/><path d="M473.34 2120h-240a6 6 0 0 1-6-6v-957.68a6 6 0 0 0-6-6h-120.4" stroke="#3a414a" stroke-width="4" fill="none"/><path d="M475.34 2119.98v.7l.07 1.32h-2.1v-4h2.1z" stroke="#3a414a" stroke-width=".05" fill="#3a414a"/><path d="M100.98 1150.32h-5.05" stroke="#3a414a" stroke-width="4" fill="none"/><path d="M654.7 1960c0 33.14-40.3 60-90 60-49.72 0-90-26.86-90-60s40.28-60 90-60c49.7 0 90 26.86 90 60z" stroke="#3a414a" stroke-width="4" fill="#fff"/><use xlink:href="#x" transform="matrix(1,0,0,1,474.6874999999999,1900) translate(43.73370370370371 47.761111111111106)"/><use xlink:href="#y" transform="matrix(1,0,0,1,474.6874999999999,1900) translate(42.9867901234568 80.02777777777777)"/><path d="M471.2 1960H333.33a6 6 0 0 1-6-6v-797.68a6 6 0 0 0-6-6h-220.9" stroke="#3a414a" stroke-width="3" fill="none"/><path d="M472.7 1959.98v.7l.03.82h-1.58v-3h1.58z" stroke="#3a414a" stroke-width=".05" fill="#3a414a"/><path d="M100.47 1150.32h-4.54" stroke="#3a414a" stroke-width="3" fill="none"/><path d="M1260 840c0 33.14-40.3 60-90 60s-90-26.86-90-60 40.3-60 90-60 90 26.86 90 60z" stroke="#3a414a" stroke-width="4" fill="#fff"/><use xlink:href="#z" transform="matrix(1,0,0,1,1080,780) translate(51.24018518518518 47.761111111111106)"/><use xlink:href="#p" transform="matrix(1,0,0,1,1080,780) translate(43.73370370370371 80.02777777777777)"/><path d="M1260 560c0 33.14-40.3 60-90 60s-90-26.86-90-60 40.3-60 90-60 90 26.86 90 60z" stroke="#3a414a" stroke-width="4" fill="#fff"/><use xlink:href="#A" transform="matrix(1,0,0,1,1080,500) translate(66.10376543209877 47.761111111111106)"/><use xlink:href="#p" transform="matrix(1,0,0,1,1080,500) translate(43.73370370370371 80.02777777777777)"/><path d="M1264 840h190a6 6 0 0 1 6 6v318a6 6 0 0 0 6 6h313.97" stroke="#3a414a" stroke-width="4" fill="none"/><path d="M1264.05 842h-2.1l.05-1.98v-.7l-.06-1.32h2.1z" stroke="#3a414a" stroke-width=".05" fill="#3a414a"/><path d="M1779.9 1170h5.07M1264 700h230a6 6 0 0 1 6 6v458a6 6 0 0 0 6 6h273.97" stroke="#3a414a" stroke-width="4" fill="none"/><path d="M1264.05 702h-2.1l.05-1.98v-.7l-.06-1.32h2.1z" stroke="#3a414a" stroke-width=".05" fill="#3a414a"/><path d="M1779.9 1170h5.07M1264 560h270a6 6 0 0 1 6 6v598a6 6 0 0 0 6 6h233.97" stroke="#3a414a" stroke-width="4" fill="none"/><path d="M1264.05 562h-2.1l.05-1.98v-.7l-.06-1.32h2.1z" stroke="#3a414a" stroke-width=".05" fill="#3a414a"/><path d="M1779.9 1170h5.07" stroke="#3a414a" stroke-width="4" fill="none"/><path d="M1260 980c0 33.14-40.3 60-90 60s-90-26.86-90-60 40.3-60 90-60 90 26.86 90 60z" stroke="#3a414a" stroke-width="4" fill="#fff"/><use xlink:href="#B" transform="matrix(1,0,0,1,1080,920) translate(48.99944444444445 47.761111111111106)"/><use xlink:href="#C" transform="matrix(1,0,0,1,1080,920) translate(55.72166666666668 80.02777777777777)"/><path d="M1264 980h150a6 6 0 0 1 6 6v178a6 6 0 0 0 6 6h353.97" stroke="#3a414a" stroke-width="4" fill="none"/><path d="M1264.05 982h-2.1l.05-1.98v-.7l-.06-1.32h2.1z" stroke="#3a414a" stroke-width=".05" fill="#3a414a"/><path d="M1779.9 1170h5.07" stroke="#3a414a" stroke-width="4" fill="none"/><path d="M782.66 1440c0 33.14-35.82 60-80 60-44.2 0-80-26.86-80-60s35.8-60 80-60c44.18 0 80 26.86 80 60z" stroke="#3a414a" stroke-width="4" fill="#fff"/><use xlink:href="#D" transform="matrix(1,0,0,1,622.65625,1380) translate(52.406543209876546 44.011111111111106)"/><use xlink:href="#E" transform="matrix(1,0,0,1,622.65625,1380) translate(19.542345679012367 76.27777777777777)"/><path d="M702.66 1376v-80a6 6 0 0 0-6-6H668.7" stroke="#3a414a" stroke-width="4" fill="none"/><path d="M704.66 1378.06l-1.98-.06h-.97l-1.04.05v-2.1h4zM668.74 1292h-2.1l.05-1.98v-.42l-.07-1.6h2.1z" stroke="#3a414a" stroke-width=".05" fill="#3a414a"/><path d="M1260 1170c0 33.14-40.3 60-90 60s-90-26.86-90-60 40.3-60 90-60 90 26.86 90 60z" stroke="#3a414a" stroke-width="4" fill="#fff"/><use xlink:href="#f" transform="matrix(1,0,0,1,1080,1110) translate(61.211481481481485 47.761111111111106)"/><use xlink:href="#F" transform="matrix(1,0,0,1,1080,1110) translate(51.912407407407414 80.02777777777777)"/><path d="M1264 1170h515.97" stroke="#3a414a" stroke-width="4" fill="none"/><path d="M1264.05 1172h-2.1l.05-1.98v-.7l-.06-1.32h2.1z" stroke="#3a414a" stroke-width=".05" fill="#3a414a"/><path d="M1779.9 1170h2.07" stroke="#3a414a" stroke-width="4" fill="none"/><path d="M1273 1758c0 33.14-46.12 60-103 60s-103-26.86-103-60 46.12-60 103-60 103 26.86 103 60z" stroke="#3a414a" stroke-width="4" fill="#fff"/><use xlink:href="#t" transform="matrix(1,0,0,1,1067,1697.999826642882) translate(32.90716049382718 47.761111111111106)"/><use xlink:href="#G" transform="matrix(1,0,0,1,1067,1697.999826642882) translate(116.4867901234568 47.761111111111106)"/><use xlink:href="#H" transform="matrix(1,0,0,1,1067,1697.999826642882) translate(58.97444444444446 80.02777777777777)"/><path d="M1273 1380c0 33.14-46.12 60-103 60s-103-26.86-103-60 46.12-60 103-60 103 26.86 103 60z" stroke="#3a414a" stroke-width="4" fill="#fff"/><use xlink:href="#k" transform="matrix(1,0,0,1,1067,1320) translate(24.20561728395064 51.511111111111106)"/><use xlink:href="#l" transform="matrix(1,0,0,1,1067,1320) translate(89.2617901234568 51.511111111111106)"/><use xlink:href="#F" transform="matrix(1,0,0,1,1067,1320) translate(64.91240740740741 83.77777777777777)"/><path d="M1286 1946c0 33.14-46.12 60-103 60s-103-26.86-103-60 46.12-60 103-60 103 26.86 103 60z" stroke="#3a414a" stroke-width="4" fill="#fff"/><use xlink:href="#I" transform="matrix(1,0,0,1,1080,1885.9998844285883) translate(53.39692708333333 41.82118055555555)"/><use xlink:href="#J" transform="matrix(1,0,0,1,1080,1885.9998844285883) translate(53.396927083333345 66.68576388888889)"/><use xlink:href="#K" transform="matrix(1,0,0,1,1080,1885.9998844285883) translate(103.005 66.68576388888889)"/><use xlink:href="#L" transform="matrix(1,0,0,1,1080,1885.9998844285883) translate(36.86090277777779 91.5503472222222)"/><path d="M1273 1570c0 33.14-46.12 60-103 60s-103-26.86-103-60 46.12-60 103-60 103 26.86 103 60z" stroke="#3a414a" stroke-width="4" fill="#fff"/><use xlink:href="#M" transform="matrix(1,0,0,1,1067,1509.9997688571757) translate(12.056866319444447 68.07118055555554)"/><use xlink:href="#N" transform="matrix(1,0,0,1,1067,1509.9997688571757) translate(94.73698784722222 68.07118055555554)"/><path d="M1170 1444v28a6 6 0 0 0 6 6h378a6 6 0 0 0 6-6v-198a6 6 0 0 0-6-6h-378a6 6 0 0 1-6-6v-28" stroke="#3a414a" stroke-width="4" fill="none"/><path d="M1169.98 1442l2.02-.02v2.07h-4v-2.1zM1169.98 1232l2.02-.02v2.07h-4v-2.1z" stroke="#3a414a" stroke-width=".05" fill="#3a414a"/><path d="M1170 1634v28a6 6 0 0 0 6 6h378a6 6 0 0 0 6-6v-388a6 6 0 0 0-6-6h-378a6 6 0 0 1-6-6v-28" stroke="#3a414a" stroke-width="4" fill="none"/><path d="M1169.98 1632l2.02-.02v2.07h-4v-2.1zM1169.98 1232l2.02-.02v2.07h-4v-2.1z" stroke="#3a414a" stroke-width=".05" fill="#3a414a"/><path d="M1170 1822v30a6 6 0 0 0 6 6h378a6 6 0 0 0 6-6v-578a6 6 0 0 0-6-6h-378a6 6 0 0 1-6-6v-28" stroke="#3a414a" stroke-width="4" fill="none"/><path d="M1169.98 1820l2.02-.02v2.07h-4v-2.1zM1169.98 1232l2.02-.02v2.07h-4v-2.1z" stroke="#3a414a" stroke-width=".05" fill="#3a414a"/><path d="M1183 2010v22a6 6 0 0 0 6 6h365a6 6 0 0 0 6-6v-758a6 6 0 0 0-6-6h-378a6 6 0 0 1-6-6v-28" stroke="#3a414a" stroke-width="4" fill="none"/><path d="M1182.98 2008l2.02-.02v2.07h-4v-2.1zM1169.98 1232l2.02-.02v2.07h-4v-2.1z" stroke="#3a414a" stroke-width=".05" fill="#3a414a"/><path d="M1320 2160c0 38.66-53.73 70-120 70-66.27 0-120-31.34-120-70s53.73-70 120-70c66.27 0 120 31.34 120 70z" stroke="#3a414a" stroke-width="4" fill="#fff"/><g><use xlink:href="#O" transform="matrix(1,0,0,1,1080,2090) translate(62.12891493055556 49.94618055555556)"/><use xlink:href="#P" transform="matrix(1,0,0,1,1080,2090) translate(12.52084201388889 74.81076388888889)"/><use xlink:href="#Q" transform="matrix(1,0,0,1,1080,2090) translate(95.20096354166667 74.81076388888889)"/><use xlink:href="#R" transform="matrix(1,0,0,1,1080,2090) translate(62.12891493055557 99.67534722222221)"/></g><path d="M1779.75 2099.75c0 10.9-8.84 19.75-19.75 19.75-10.9 0-19.75-8.84-19.75-19.75 0-10.9 8.84-19.75 19.75-19.75 10.9 0 19.75 8.84 19.75 19.75z" stroke="#3a414a" stroke-width="7" fill="#fff"/><path d="M1760 2119.5v49.3a20.7 20.7 0 0 0 3.2 11.07L1800 2238m-40-63.2l-40 63.2m0-98.75h80" stroke="#3a414a" stroke-width="7" fill="none"/><path d="M1720 2086a6 6 0 0 1 6-6h68a6 6 0 0 1 6 6v168a6 6 0 0 1-6 6h-68a6 6 0 0 1-6-6z" fill="none"/><g><use xlink:href="#S" transform="matrix(1,0,0,1,1640,2238) translate(26.29629629629629 17.77777777777778)"/><use xlink:href="#T" transform="matrix(1,0,0,1,1640,2238) translate(118.76543209876543 17.77777777777778)"/></g><path d="M1324 2160h430.5" stroke="#3a414a" stroke-width="4" fill="none"/><path d="M1324.05 2162h-2.1v-.17l.05-1.82v-.93l-.06-1.07h2.1z" stroke="#3a414a" stroke-width=".05" fill="#3a414a"/><path d="M1754.45 2160h5.05M1324 2160h290a6 6 0 0 0 6-6v-978a6 6 0 0 1 6-6h153.97" stroke="#3a414a" stroke-width="4" fill="none"/><path d="M1324.05 2162h-2.1v-.17l.05-1.82v-.93l-.06-1.07h2.1z" stroke="#3a414a" stroke-width=".05" fill="#3a414a"/><path d="M1779.9 1170h5.07" stroke="#3a414a" stroke-width="4" fill="none"/><path d="M657.34 2290c0 33.14-40.3 60-90 60s-90-26.86-90-60 40.3-60 90-60 90 26.86 90 60z" stroke="#3a414a" stroke-width="4" fill="#fff"/><g><use xlink:href="#U" transform="matrix(1,0,0,1,477.34375,2230) translate(48.25253086419754 47.761111111111106)"/><use xlink:href="#V" transform="matrix(1,0,0,1,477.34375,2230) translate(55.72166666666668 80.02777777777777)"/></g><path d="M567.34 2184v42" stroke="#3a414a" stroke-width="4" fill="none"/><path d="M567.32 2182h2.02v2.05h-4v-2.1zM569.34 2228.05l-1.98-.05h-2.02v-2.05h4z" stroke="#3a414a" stroke-width=".05" fill="#3a414a"/><defs><path fill="#3a414a" d="M84 4C-5 8 30-112 23-190h32v120c0 31 7 50 39 49 72-2 45-101 50-169h31l1 190h-30c-1-10 1-25-2-33-11 22-28 36-60 37" id="W"/><path fill="#3a414a" d="M135-143c-3-34-86-38-87 0 15 53 115 12 119 90S17 21 10-45l28-5c4 36 97 45 98 0-10-56-113-15-118-90-4-57 82-63 122-42 12 7 21 19 24 35" id="X"/><path fill="#3a414a" d="M100-194c63 0 86 42 84 106H49c0 40 14 67 53 68 26 1 43-12 49-29l28 8c-11 28-37 45-77 45C44 4 14-33 15-96c1-61 26-98 85-98zm52 81c6-60-76-77-97-28-3 7-6 17-6 28h103" id="Y"/><path fill="#3a414a" d="M114-163C36-179 61-72 57 0H25l-1-190h30c1 12-1 29 2 39 6-27 23-49 58-41v29" id="Z"/><g id="a"><use transform="matrix(0.06172839506172839,0,0,0.06172839506172839,0,0)" xlink:href="#W"/><use transform="matrix(0.06172839506172839,0,0,0.06172839506172839,12.345679012345679,0)" xlink:href="#X"/><use transform="matrix(0.06172839506172839,0,0,0.06172839506172839,23.45679012345679,0)" xlink:href="#Y"/><use transform="matrix(0.06172839506172839,0,0,0.06172839506172839,35.80246913580247,0)" xlink:href="#Z"/></g><path fill="#3a414a" d="M185-189c-5-48-123-54-124 2 14 75 158 14 163 119 3 78-121 87-175 55-17-10-28-26-33-46l33-7c5 56 141 63 141-1 0-78-155-14-162-118-5-82 145-84 179-34 5 7 8 16 11 25" id="aa"/><path fill="#3a414a" d="M24 0v-261h32V0H24" id="ab"/><g id="b"><use transform="matrix(0.06172839506172839,0,0,0.06172839506172839,0,0)" xlink:href="#aa"/><use transform="matrix(0.06172839506172839,0,0,0.06172839506172839,14.814814814814813,0)" xlink:href="#Y"/><use transform="matrix(0.06172839506172839,0,0,0.06172839506172839,27.160493827160494,0)" xlink:href="#ab"/><use transform="matrix(0.06172839506172839,0,0,0.06172839506172839,32.03703703703704,0)" xlink:href="#ab"/><use transform="matrix(0.06172839506172839,0,0,0.06172839506172839,36.91358024691358,0)" xlink:href="#Y"/><use transform="matrix(0.06172839506172839,0,0,0.06172839506172839,49.25925925925926,0)" xlink:href="#Z"/></g><path d="M30 0v-248h33v221h125V0H30" id="ac"/><path d="M100-194c62-1 85 37 85 99 1 63-27 99-86 99S16-35 15-95c0-66 28-99 85-99zM99-20c44 1 53-31 53-75 0-43-8-75-51-75s-53 32-53 75 10 74 51 75" id="ad"/><path d="M177-190C167-65 218 103 67 71c-23-6-38-20-44-43l32-5c15 47 100 32 89-28v-30C133-14 115 1 83 1 29 1 15-40 15-95c0-56 16-97 71-98 29-1 48 16 59 35 1-10 0-23 2-32h30zM94-22c36 0 50-32 50-73 0-42-14-75-50-75-39 0-46 34-46 75s6 73 46 73" id="ae"/><path d="M24-231v-30h32v30H24zM24 0v-190h32V0H24" id="af"/><path d="M117-194c89-4 53 116 60 194h-32v-121c0-31-8-49-39-48C34-167 62-67 57 0H25l-1-190h30c1 10-1 24 2 32 11-22 29-35 61-36" id="ag"/><g id="c"><use transform="matrix(0.07469135802469135,0,0,0.07469135802469135,0,0)" xlink:href="#ac"/><use transform="matrix(0.07469135802469135,0,0,0.07469135802469135,14.938271604938269,0)" xlink:href="#ad"/><use transform="matrix(0.07469135802469135,0,0,0.07469135802469135,29.876543209876537,0)" xlink:href="#ae"/><use transform="matrix(0.07469135802469135,0,0,0.07469135802469135,44.81481481481481,0)" xlink:href="#af"/><use transform="matrix(0.07469135802469135,0,0,0.07469135802469135,50.715432098765426,0)" xlink:href="#ag"/></g><path d="M233-177c-1 41-23 64-60 70L243 0h-38l-65-103H63V0H30v-248c88 3 205-21 203 71zM63-129c60-2 137 13 137-47 0-61-80-42-137-45v92" id="ah"/><path d="M100-194c63 0 86 42 84 106H49c0 40 14 67 53 68 26 1 43-12 49-29l28 8c-11 28-37 45-77 45C44 4 14-33 15-96c1-61 26-98 85-98zm52 81c6-60-76-77-97-28-3 7-6 17-6 28h103" id="ai"/><path d="M135-143c-3-34-86-38-87 0 15 53 115 12 119 90S17 21 10-45l28-5c4 36 97 45 98 0-10-56-113-15-118-90-4-57 82-63 122-42 12 7 21 19 24 35" id="aj"/><path d="M59-47c-2 24 18 29 38 22v24C64 9 27 4 27-40v-127H5v-23h24l9-43h21v43h35v23H59v120" id="ak"/><path d="M114-163C36-179 61-72 57 0H25l-1-190h30c1 12-1 29 2 39 6-27 23-49 58-41v29" id="al"/><g id="d"><use transform="matrix(0.07469135802469135,0,0,0.07469135802469135,0,0)" xlink:href="#ah"/><use transform="matrix(0.07469135802469135,0,0,0.07469135802469135,19.34506172839506,0)" xlink:href="#ai"/><use transform="matrix(0.07469135802469135,0,0,0.07469135802469135,34.28333333333333,0)" xlink:href="#ae"/><use transform="matrix(0.07469135802469135,0,0,0.07469135802469135,49.2216049382716,0)" xlink:href="#af"/><use transform="matrix(0.07469135802469135,0,0,0.07469135802469135,55.12222222222221,0)" xlink:href="#aj"/><use transform="matrix(0.07469135802469135,0,0,0.07469135802469135,68.56666666666666,0)" xlink:href="#af"/><use transform="matrix(0.07469135802469135,0,0,0.07469135802469135,74.46728395061729,0)" xlink:href="#ak"/><use transform="matrix(0.07469135802469135,0,0,0.07469135802469135,81.93641975308643,0)" xlink:href="#ai"/><use transform="matrix(0.07469135802469135,0,0,0.07469135802469135,96.87469135802469,0)" xlink:href="#al"/></g><path d="M160-131c35 5 61 23 61 61C221 17 115-2 30 0v-248c76 3 177-17 177 60 0 33-19 50-47 57zm-97-11c50-1 110 9 110-42 0-47-63-36-110-37v79zm0 115c55-2 124 14 124-45 0-56-70-42-124-44v89" id="am"/><path d="M206 0h-36l-40-164L89 0H53L-1-190h32L70-26l43-164h34l41 164 42-164h31" id="an"/><g id="e"><use transform="matrix(0.07469135802469135,0,0,0.07469135802469135,0,0)" xlink:href="#am"/><use transform="matrix(0.07469135802469135,0,0,0.07469135802469135,17.925925925925924,0)" xlink:href="#al"/><use transform="matrix(0.07469135802469135,0,0,0.07469135802469135,26.81419753086419,0)" xlink:href="#ad"/><use transform="matrix(0.07469135802469135,0,0,0.07469135802469135,41.75246913580246,0)" xlink:href="#an"/><use transform="matrix(0.07469135802469135,0,0,0.07469135802469135,61.09753086419751,0)" xlink:href="#aj"/><use transform="matrix(0.07469135802469135,0,0,0.07469135802469135,74.54197530864195,0)" xlink:href="#ai"/></g><path d="M137 0h-34L2-248h35l83 218 83-218h36" id="ao"/><g id="f"><use transform="matrix(0.07469135802469135,0,0,0.07469135802469135,0,0)" xlink:href="#ao"/><use transform="matrix(0.07469135802469135,0,0,0.07469135802469135,17.403086419753084,0)" xlink:href="#af"/><use transform="matrix(0.07469135802469135,0,0,0.07469135802469135,23.3037037037037,0)" xlink:href="#ai"/><use transform="matrix(0.07469135802469135,0,0,0.07469135802469135,38.24197530864197,0)" xlink:href="#an"/></g><path d="M212-179c-10-28-35-45-73-45-59 0-87 40-87 99 0 60 29 101 89 101 43 0 62-24 78-52l27 14C228-24 195 4 139 4 59 4 22-46 18-125c-6-104 99-153 187-111 19 9 31 26 39 46" id="ap"/><path d="M141-36C126-15 110 5 73 4 37 3 15-17 15-53c-1-64 63-63 125-63 3-35-9-54-41-54-24 1-41 7-42 31l-33-3c5-37 33-52 76-52 45 0 72 20 72 64v82c-1 20 7 32 28 27v20c-31 9-61-2-59-35zM48-53c0 20 12 33 32 33 41-3 63-29 60-74-43 2-92-5-92 41" id="aq"/><g id="g"><use transform="matrix(0.07469135802469135,0,0,0.07469135802469135,0,0)" xlink:href="#ap"/><use transform="matrix(0.07469135802469135,0,0,0.07469135802469135,19.34506172839506,0)" xlink:href="#aq"/><use transform="matrix(0.07469135802469135,0,0,0.07469135802469135,34.28333333333333,0)" xlink:href="#ak"/><use transform="matrix(0.07469135802469135,0,0,0.07469135802469135,41.752469135802464,0)" xlink:href="#ai"/><use transform="matrix(0.07469135802469135,0,0,0.07469135802469135,56.690740740740736,0)" xlink:href="#ae"/><use transform="matrix(0.07469135802469135,0,0,0.07469135802469135,71.629012345679,0)" xlink:href="#ad"/><use transform="matrix(0.07469135802469135,0,0,0.07469135802469135,86.56728395061727,0)" xlink:href="#al"/><use transform="matrix(0.07469135802469135,0,0,0.07469135802469135,95.45555555555553,0)" xlink:href="#af"/><use transform="matrix(0.07469135802469135,0,0,0.07469135802469135,101.35617283950614,0)" xlink:href="#ai"/><use transform="matrix(0.07469135802469135,0,0,0.07469135802469135,116.29444444444441,0)" xlink:href="#aj"/></g><path d="M185-189c-5-48-123-54-124 2 14 75 158 14 163 119 3 78-121 87-175 55-17-10-28-26-33-46l33-7c5 56 141 63 141-1 0-78-155-14-162-118-5-82 145-84 179-34 5 7 8 16 11 25" id="ar"/><path d="M96-169c-40 0-48 33-48 73s9 75 48 75c24 0 41-14 43-38l32 2c-6 37-31 61-74 61-59 0-76-41-82-99-10-93 101-131 147-64 4 7 5 14 7 22l-32 3c-4-21-16-35-41-35" id="as"/><path d="M106-169C34-169 62-67 57 0H25v-261h32l-1 103c12-21 28-36 61-36 89 0 53 116 60 194h-32v-121c2-32-8-49-39-48" id="at"/><g id="h"><use transform="matrix(0.07469135802469135,0,0,0.07469135802469135,0,0)" xlink:href="#ar"/><use transform="matrix(0.07469135802469135,0,0,0.07469135802469135,17.925925925925924,0)" xlink:href="#ai"/><use transform="matrix(0.07469135802469135,0,0,0.07469135802469135,32.86419753086419,0)" xlink:href="#aq"/><use transform="matrix(0.07469135802469135,0,0,0.07469135802469135,47.802469135802454,0)" xlink:href="#al"/><use transform="matrix(0.07469135802469135,0,0,0.07469135802469135,56.69074074074072,0)" xlink:href="#as"/><use transform="matrix(0.07469135802469135,0,0,0.07469135802469135,70.13518518518516,0)" xlink:href="#at"/></g><path d="M210-169c-67 3-38 105-44 169h-31v-121c0-29-5-50-35-48C34-165 62-65 56 0H25l-1-190h30c1 10-1 24 2 32 10-44 99-50 107 0 11-21 27-35 58-36 85-2 47 119 55 194h-31v-121c0-29-5-49-35-48" id="au"/><path d="M115-194c55 1 70 41 70 98S169 2 115 4C84 4 66-9 55-30l1 105H24l-1-265h31l2 30c10-21 28-34 59-34zm-8 174c40 0 45-34 45-75s-6-73-45-74c-42 0-51 32-51 76 0 43 10 73 51 73" id="av"/><g id="i"><use transform="matrix(0.07469135802469135,0,0,0.07469135802469135,0,0)" xlink:href="#ap"/><use transform="matrix(0.07469135802469135,0,0,0.07469135802469135,19.34506172839506,0)" xlink:href="#ad"/><use transform="matrix(0.07469135802469135,0,0,0.07469135802469135,34.28333333333333,0)" xlink:href="#au"/><use transform="matrix(0.07469135802469135,0,0,0.07469135802469135,56.61604938271604,0)" xlink:href="#av"/><use transform="matrix(0.07469135802469135,0,0,0.07469135802469135,71.55432098765431,0)" xlink:href="#aq"/><use transform="matrix(0.07469135802469135,0,0,0.07469135802469135,86.49259259259257,0)" xlink:href="#al"/><use transform="matrix(0.07469135802469135,0,0,0.07469135802469135,95.38086419753085,0)" xlink:href="#ai"/></g><path d="M30-248c87 1 191-15 191 75 0 78-77 80-158 76V0H30v-248zm33 125c57 0 124 11 124-50 0-59-68-47-124-48v98" id="aw"/><path d="M85-194c31 0 48 13 60 33l-1-100h32l1 261h-30c-2-10 0-23-3-31C134-8 116 4 85 4 32 4 16-35 15-94c0-66 23-100 70-100zm9 24c-40 0-46 34-46 75 0 40 6 74 45 74 42 0 51-32 51-76 0-42-9-74-50-73" id="ax"/><path d="M84 4C-5 8 30-112 23-190h32v120c0 31 7 50 39 49 72-2 45-101 50-169h31l1 190h-30c-1-10 1-25-2-33-11 22-28 36-60 37" id="ay"/><g id="j"><use transform="matrix(0.07469135802469135,0,0,0.07469135802469135,0,0)" xlink:href="#aw"/><use transform="matrix(0.07469135802469135,0,0,0.07469135802469135,17.925925925925924,0)" xlink:href="#al"/><use transform="matrix(0.07469135802469135,0,0,0.07469135802469135,26.81419753086419,0)" xlink:href="#ad"/><use transform="matrix(0.07469135802469135,0,0,0.07469135802469135,41.75246913580246,0)" xlink:href="#ax"/><use transform="matrix(0.07469135802469135,0,0,0.07469135802469135,56.69074074074072,0)" xlink:href="#ay"/><use transform="matrix(0.07469135802469135,0,0,0.07469135802469135,71.62901234567899,0)" xlink:href="#as"/><use transform="matrix(0.07469135802469135,0,0,0.07469135802469135,85.07345679012343,0)" xlink:href="#ak"/><use transform="matrix(0.07469135802469135,0,0,0.07469135802469135,92.54259259259258,0)" xlink:href="#aj"/></g><g id="k"><use transform="matrix(0.07469135802469135,0,0,0.07469135802469135,0,0)" xlink:href="#ao"/><use transform="matrix(0.07469135802469135,0,0,0.07469135802469135,17.403086419753084,0)" xlink:href="#af"/><use transform="matrix(0.07469135802469135,0,0,0.07469135802469135,23.3037037037037,0)" xlink:href="#ai"/><use transform="matrix(0.07469135802469135,0,0,0.07469135802469135,38.24197530864197,0)" xlink:href="#an"/></g><g id="l"><use transform="matrix(0.07469135802469135,0,0,0.07469135802469135,0,0)" xlink:href="#aw"/><use transform="matrix(0.07469135802469135,0,0,0.07469135802469135,17.925925925925924,0)" xlink:href="#al"/><use transform="matrix(0.07469135802469135,0,0,0.07469135802469135,26.81419753086419,0)" xlink:href="#ad"/><use transform="matrix(0.07469135802469135,0,0,0.07469135802469135,41.75246913580246,0)" xlink:href="#ax"/><use transform="matrix(0.07469135802469135,0,0,0.07469135802469135,56.69074074074072,0)" xlink:href="#ay"/><use transform="matrix(0.07469135802469135,0,0,0.07469135802469135,71.62901234567899,0)" xlink:href="#as"/><use transform="matrix(0.07469135802469135,0,0,0.07469135802469135,85.07345679012343,0)" xlink:href="#ak"/></g><path d="M30-248c118-7 216 8 213 122C240-48 200 0 122 0H30v-248zM63-27c89 8 146-16 146-99s-60-101-146-95v194" id="az"/><path d="M24 0v-261h32V0H24" id="aA"/><g id="m"><use transform="matrix(0.07469135802469135,0,0,0.07469135802469135,0,0)" xlink:href="#az"/><use transform="matrix(0.07469135802469135,0,0,0.07469135802469135,19.34506172839506,0)" xlink:href="#ai"/><use transform="matrix(0.07469135802469135,0,0,0.07469135802469135,34.28333333333333,0)" xlink:href="#ak"/><use transform="matrix(0.07469135802469135,0,0,0.07469135802469135,41.752469135802464,0)" xlink:href="#aq"/><use transform="matrix(0.07469135802469135,0,0,0.07469135802469135,56.690740740740736,0)" xlink:href="#af"/><use transform="matrix(0.07469135802469135,0,0,0.07469135802469135,62.59135802469135,0)" xlink:href="#aA"/><use transform="matrix(0.07469135802469135,0,0,0.07469135802469135,68.49197530864197,0)" xlink:href="#aj"/></g><path d="M179-190L93 31C79 59 56 82 12 73V49c39 6 53-20 64-50L1-190h34L92-34l54-156h33" id="aB"/><g id="n"><use transform="matrix(0.07469135802469135,0,0,0.07469135802469135,0,0)" xlink:href="#aw"/><use transform="matrix(0.07469135802469135,0,0,0.07469135802469135,17.925925925925924,0)" xlink:href="#aq"/><use transform="matrix(0.07469135802469135,0,0,0.07469135802469135,32.86419753086419,0)" xlink:href="#aB"/><use transform="matrix(0.07469135802469135,0,0,0.07469135802469135,46.30864197530863,0)" xlink:href="#au"/><use transform="matrix(0.07469135802469135,0,0,0.07469135802469135,68.64135802469134,0)" xlink:href="#ai"/><use transform="matrix(0.07469135802469135,0,0,0.07469135802469135,83.57962962962962,0)" xlink:href="#ag"/><use transform="matrix(0.07469135802469135,0,0,0.07469135802469135,98.51790123456787,0)" xlink:href="#ak"/></g><path d="M30 0v-248h187v28H63v79h144v27H63v87h162V0H30" id="aC"/><g id="o"><use transform="matrix(0.07469135802469135,0,0,0.07469135802469135,0,0)" xlink:href="#aC"/><use transform="matrix(0.07469135802469135,0,0,0.07469135802469135,17.925925925925924,0)" xlink:href="#ax"/><use transform="matrix(0.07469135802469135,0,0,0.07469135802469135,32.86419753086419,0)" xlink:href="#af"/><use transform="matrix(0.07469135802469135,0,0,0.07469135802469135,38.764814814814805,0)" xlink:href="#ak"/></g><g id="p"><use transform="matrix(0.07469135802469135,0,0,0.07469135802469135,0,0)" xlink:href="#aw"/><use transform="matrix(0.07469135802469135,0,0,0.07469135802469135,17.925925925925924,0)" xlink:href="#al"/><use transform="matrix(0.07469135802469135,0,0,0.07469135802469135,26.81419753086419,0)" xlink:href="#ad"/><use transform="matrix(0.07469135802469135,0,0,0.07469135802469135,41.75246913580246,0)" xlink:href="#ax"/><use transform="matrix(0.07469135802469135,0,0,0.07469135802469135,56.69074074074072,0)" xlink:href="#ay"/><use transform="matrix(0.07469135802469135,0,0,0.07469135802469135,71.62901234567899,0)" xlink:href="#as"/><use transform="matrix(0.07469135802469135,0,0,0.07469135802469135,85.07345679012343,0)" xlink:href="#ak"/></g><path d="M205 0l-28-72H64L36 0H1l101-248h38L239 0h-34zm-38-99l-47-123c-12 45-31 82-46 123h93" id="aD"/><g id="q"><use transform="matrix(0.07469135802469135,0,0,0.07469135802469135,0,0)" xlink:href="#aD"/><use transform="matrix(0.07469135802469135,0,0,0.07469135802469135,17.925925925925924,0)" xlink:href="#ax"/><use transform="matrix(0.07469135802469135,0,0,0.07469135802469135,32.86419753086419,0)" xlink:href="#ax"/></g><g id="r"><use transform="matrix(0.07469135802469135,0,0,0.07469135802469135,0,0)" xlink:href="#ak"/><use transform="matrix(0.07469135802469135,0,0,0.07469135802469135,7.469135802469134,0)" xlink:href="#ad"/></g><g id="s"><use transform="matrix(0.07469135802469135,0,0,0.07469135802469135,0,0)" xlink:href="#as"/><use transform="matrix(0.07469135802469135,0,0,0.07469135802469135,13.444444444444443,0)" xlink:href="#aq"/><use transform="matrix(0.07469135802469135,0,0,0.07469135802469135,28.38271604938271,0)" xlink:href="#al"/><use transform="matrix(0.07469135802469135,0,0,0.07469135802469135,37.27098765432098,0)" xlink:href="#ak"/></g><path d="M143 0L79-87 56-68V0H24v-261h32v163l83-92h37l-77 82L181 0h-38" id="aE"/><g id="t"><use transform="matrix(0.07469135802469135,0,0,0.07469135802469135,0,0)" xlink:href="#ap"/><use transform="matrix(0.07469135802469135,0,0,0.07469135802469135,19.34506172839506,0)" xlink:href="#at"/><use transform="matrix(0.07469135802469135,0,0,0.07469135802469135,34.28333333333333,0)" xlink:href="#ai"/><use transform="matrix(0.07469135802469135,0,0,0.07469135802469135,49.2216049382716,0)" xlink:href="#as"/><use transform="matrix(0.07469135802469135,0,0,0.07469135802469135,62.66604938271604,0)" xlink:href="#aE"/></g><g id="u"><use transform="matrix(0.07469135802469135,0,0,0.07469135802469135,0,0)" xlink:href="#ad"/><use transform="matrix(0.07469135802469135,0,0,0.07469135802469135,14.938271604938269,0)" xlink:href="#ay"/><use transform="matrix(0.07469135802469135,0,0,0.07469135802469135,29.876543209876537,0)" xlink:href="#ak"/></g><g id="v"><use transform="matrix(0.07469135802469135,0,0,0.07469135802469135,0,0)" xlink:href="#ao"/><use transform="matrix(0.07469135802469135,0,0,0.07469135802469135,17.403086419753084,0)" xlink:href="#af"/><use transform="matrix(0.07469135802469135,0,0,0.07469135802469135,23.3037037037037,0)" xlink:href="#ai"/><use transform="matrix(0.07469135802469135,0,0,0.07469135802469135,38.24197530864197,0)" xlink:href="#an"/></g><path d="M101-234c-31-9-42 10-38 44h38v23H63V0H32v-167H5v-23h27c-7-52 17-82 69-68v24" id="aF"/><g id="w"><use transform="matrix(0.07469135802469135,0,0,0.07469135802469135,0,0)" xlink:href="#aw"/><use transform="matrix(0.07469135802469135,0,0,0.07469135802469135,17.925925925925924,0)" xlink:href="#al"/><use transform="matrix(0.07469135802469135,0,0,0.07469135802469135,26.81419753086419,0)" xlink:href="#ad"/><use transform="matrix(0.07469135802469135,0,0,0.07469135802469135,41.75246913580246,0)" xlink:href="#aF"/><use transform="matrix(0.07469135802469135,0,0,0.07469135802469135,49.22160493827159,0)" xlink:href="#af"/><use transform="matrix(0.07469135802469135,0,0,0.07469135802469135,55.122222222222206,0)" xlink:href="#aA"/><use transform="matrix(0.07469135802469135,0,0,0.07469135802469135,61.02283950617282,0)" xlink:href="#ai"/></g><g id="x"><use transform="matrix(0.07469135802469135,0,0,0.07469135802469135,0,0)" xlink:href="#ap"/><use transform="matrix(0.07469135802469135,0,0,0.07469135802469135,19.34506172839506,0)" xlink:href="#ad"/><use transform="matrix(0.07469135802469135,0,0,0.07469135802469135,34.28333333333333,0)" xlink:href="#ag"/><use transform="matrix(0.07469135802469135,0,0,0.07469135802469135,49.2216049382716,0)" xlink:href="#ak"/><use transform="matrix(0.07469135802469135,0,0,0.07469135802469135,56.69074074074073,0)" xlink:href="#aq"/><use transform="matrix(0.07469135802469135,0,0,0.07469135802469135,71.629012345679,0)" xlink:href="#as"/><use transform="matrix(0.07469135802469135,0,0,0.07469135802469135,85.07345679012344,0)" xlink:href="#ak"/></g><g id="y"><use transform="matrix(0.07469135802469135,0,0,0.07469135802469135,0,0)" xlink:href="#ar"/><use transform="matrix(0.07469135802469135,0,0,0.07469135802469135,17.925925925925924,0)" xlink:href="#ay"/><use transform="matrix(0.07469135802469135,0,0,0.07469135802469135,32.86419753086419,0)" xlink:href="#av"/><use transform="matrix(0.07469135802469135,0,0,0.07469135802469135,47.802469135802454,0)" xlink:href="#av"/><use transform="matrix(0.07469135802469135,0,0,0.07469135802469135,62.74074074074072,0)" xlink:href="#ad"/><use transform="matrix(0.07469135802469135,0,0,0.07469135802469135,77.67901234567898,0)" xlink:href="#al"/><use transform="matrix(0.07469135802469135,0,0,0.07469135802469135,86.56728395061725,0)" xlink:href="#ak"/></g><g id="z"><use transform="matrix(0.07469135802469135,0,0,0.07469135802469135,0,0)" xlink:href="#az"/><use transform="matrix(0.07469135802469135,0,0,0.07469135802469135,19.34506172839506,0)" xlink:href="#ai"/><use transform="matrix(0.07469135802469135,0,0,0.07469135802469135,34.28333333333333,0)" xlink:href="#aA"/><use transform="matrix(0.07469135802469135,0,0,0.07469135802469135,40.18395061728394,0)" xlink:href="#ai"/><use transform="matrix(0.07469135802469135,0,0,0.07469135802469135,55.12222222222222,0)" xlink:href="#ak"/><use transform="matrix(0.07469135802469135,0,0,0.07469135802469135,62.59135802469135,0)" xlink:href="#ai"/></g><g id="A"><use transform="matrix(0.07469135802469135,0,0,0.07469135802469135,0,0)" xlink:href="#aD"/><use transform="matrix(0.07469135802469135,0,0,0.07469135802469135,17.925925925925924,0)" xlink:href="#ax"/><use transform="matrix(0.07469135802469135,0,0,0.07469135802469135,32.86419753086419,0)" xlink:href="#ax"/></g><path d="M108 0H70L1-190h34L89-25l56-165h34" id="aG"/><g id="B"><use transform="matrix(0.07469135802469135,0,0,0.07469135802469135,0,0)" xlink:href="#ah"/><use transform="matrix(0.07469135802469135,0,0,0.07469135802469135,19.34506172839506,0)" xlink:href="#ai"/><use transform="matrix(0.07469135802469135,0,0,0.07469135802469135,34.28333333333333,0)" xlink:href="#as"/><use transform="matrix(0.07469135802469135,0,0,0.07469135802469135,47.72777777777778,0)" xlink:href="#af"/><use transform="matrix(0.07469135802469135,0,0,0.07469135802469135,53.6283950617284,0)" xlink:href="#aG"/><use transform="matrix(0.07469135802469135,0,0,0.07469135802469135,67.07283950617284,0)" xlink:href="#ai"/></g><path d="M140-251c81 0 123 46 123 126C263-46 219 4 140 4 59 4 17-45 17-125s42-126 123-126zm0 227c63 0 89-41 89-101s-29-99-89-99c-61 0-89 39-89 99S79-25 140-24" id="aH"/><g id="C"><use transform="matrix(0.07469135802469135,0,0,0.07469135802469135,0,0)" xlink:href="#aH"/><use transform="matrix(0.07469135802469135,0,0,0.07469135802469135,20.913580246913575,0)" xlink:href="#al"/><use transform="matrix(0.07469135802469135,0,0,0.07469135802469135,29.801851851851843,0)" xlink:href="#ax"/><use transform="matrix(0.07469135802469135,0,0,0.07469135802469135,44.740123456790116,0)" xlink:href="#ai"/><use transform="matrix(0.07469135802469135,0,0,0.07469135802469135,59.678395061728374,0)" xlink:href="#al"/></g><path d="M143 4C61 4 22-44 18-125c-5-107 100-154 193-111 17 8 29 25 37 43l-32 9c-13-25-37-40-76-40-61 0-88 39-88 99 0 61 29 100 91 101 35 0 62-11 79-27v-45h-74v-28h105v86C228-13 192 4 143 4" id="aI"/><g id="D"><use transform="matrix(0.07469135802469135,0,0,0.07469135802469135,0,0)" xlink:href="#aI"/><use transform="matrix(0.07469135802469135,0,0,0.07469135802469135,20.913580246913575,0)" xlink:href="#af"/><use transform="matrix(0.07469135802469135,0,0,0.07469135802469135,26.81419753086419,0)" xlink:href="#aG"/><use transform="matrix(0.07469135802469135,0,0,0.07469135802469135,40.258641975308635,0)" xlink:href="#ai"/></g><path d="M63-220v92h138v28H63V0H30v-248h175v28H63" id="aJ"/><g id="E"><use transform="matrix(0.07469135802469135,0,0,0.07469135802469135,0,0)" xlink:href="#aJ"/><use transform="matrix(0.07469135802469135,0,0,0.07469135802469135,16.357407407407404,0)" xlink:href="#ai"/><use transform="matrix(0.07469135802469135,0,0,0.07469135802469135,31.295679012345673,0)" xlink:href="#aq"/><use transform="matrix(0.07469135802469135,0,0,0.07469135802469135,46.23395061728394,0)" xlink:href="#ax"/><use transform="matrix(0.07469135802469135,0,0,0.07469135802469135,61.1722222222222,0)" xlink:href="#am"/><use transform="matrix(0.07469135802469135,0,0,0.07469135802469135,79.09814814814814,0)" xlink:href="#aq"/><use transform="matrix(0.07469135802469135,0,0,0.07469135802469135,94.03641975308639,0)" xlink:href="#as"/><use transform="matrix(0.07469135802469135,0,0,0.07469135802469135,107.48086419753083,0)" xlink:href="#aE"/></g><g id="F"><use transform="matrix(0.07469135802469135,0,0,0.07469135802469135,0,0)" xlink:href="#ar"/><use transform="matrix(0.07469135802469135,0,0,0.07469135802469135,17.925925925925924,0)" xlink:href="#ak"/><use transform="matrix(0.07469135802469135,0,0,0.07469135802469135,25.395061728395056,0)" xlink:href="#aq"/><use transform="matrix(0.07469135802469135,0,0,0.07469135802469135,40.33333333333333,0)" xlink:href="#ak"/><use transform="matrix(0.07469135802469135,0,0,0.07469135802469135,47.80246913580246,0)" xlink:href="#ay"/><use transform="matrix(0.07469135802469135,0,0,0.07469135802469135,62.74074074074073,0)" xlink:href="#aj"/></g><path d="M127-220V0H93v-220H8v-28h204v28h-85" id="aK"/><g id="G"><use transform="matrix(0.07469135802469135,0,0,0.07469135802469135,0,0)" xlink:href="#aK"/><use transform="matrix(0.07469135802469135,0,0,0.07469135802469135,13.36975308641975,0)" xlink:href="#ad"/><use transform="matrix(0.07469135802469135,0,0,0.07469135802469135,28.30802469135802,0)" xlink:href="#ak"/><use transform="matrix(0.07469135802469135,0,0,0.07469135802469135,35.777160493827154,0)" xlink:href="#aq"/><use transform="matrix(0.07469135802469135,0,0,0.07469135802469135,50.71543209876541,0)" xlink:href="#aA"/></g><path d="M33 0v-248h34V0H33" id="aL"/><g id="H"><use transform="matrix(0.07469135802469135,0,0,0.07469135802469135,0,0)" xlink:href="#aL"/><use transform="matrix(0.07469135802469135,0,0,0.07469135802469135,7.469135802469134,0)" xlink:href="#ag"/><use transform="matrix(0.07469135802469135,0,0,0.07469135802469135,22.407407407407405,0)" xlink:href="#as"/><use transform="matrix(0.07469135802469135,0,0,0.07469135802469135,35.85185185185185,0)" xlink:href="#ad"/><use transform="matrix(0.07469135802469135,0,0,0.07469135802469135,50.79012345679011,0)" xlink:href="#au"/><use transform="matrix(0.07469135802469135,0,0,0.07469135802469135,73.12283950617282,0)" xlink:href="#ai"/></g><path d="M251-945c-104-289 136-493 421-493 94 0 187 14 280 43l-37 140c-210-82-526-60-528 182 0 85 71 158 211 225 177 85 201 79 309 177 65 59 115 146 115 265 0 265-215 434-465 433-121 0-228-24-319-72l34-141c107 49 201 73 281 73 177 0 311-99 309-272 0-63-18-115-55-159s-105-87-203-134c-169-81-188-73-285-166-30-29-54-63-68-101" id="aM"/><path d="M627-1067c255 1 431 226 422 502v49H334c-8 217 149 407 354 407 95 0 192-17 293-51l27 125C916 6 809 27 686 27c-314 0-516-228-516-551 0-303 173-543 457-543zm252 424c8-145-114-289-246-289-166 0-282 128-289 289h535" id="aN"/><path d="M612-932c-94 1-239 48-305 86l-41-112c142-73 274-109 396-109 237 0 356 126 356 377 0 231-19 498 26 690H889c-13-42-19-98-19-168C781-38 661 27 508 27c-204 0-368-226-262-431 92-179 357-192 616-210 12-205-66-321-250-318zm-59 809c139-4 242-91 309-186v-189c-233 28-302 11-426 97-40 28-57 71-57 122-2 94 78 159 174 156" id="aO"/><path d="M793-909c-150 0-257 142-312 235V0H326v-1042h155v211c120-239 312-290 553-183l-63 150c-69-30-128-45-178-45" id="aP"/><path d="M340-520c0 222 153 411 375 411 88 0 179-17 272-51l27 125C923 6 824 27 715 27c-324 0-539-223-539-547 0-322 217-547 535-547 105 0 204 18 299 55l-41 129c-95-33-180-49-256-49-234-2-373 171-373 412" id="aQ"/><path d="M862-668c-1-164-37-264-184-264-95 0-198 59-307 178V0H215v-1411h156v522c112-119 230-178 354-178 195 0 293 118 293 354V0H862v-668" id="aR"/><g id="I"><use transform="matrix(0.013454861111111108,0,0,0.013454861111111108,0,0)" xlink:href="#aM"/><use transform="matrix(0.013454861111111108,0,0,0.013454861111111108,16.536024305555554,0)" xlink:href="#aN"/><use transform="matrix(0.013454861111111108,0,0,0.013454861111111108,33.07204861111111,0)" xlink:href="#aO"/><use transform="matrix(0.013454861111111108,0,0,0.013454861111111108,49.60807291666666,0)" xlink:href="#aP"/><use transform="matrix(0.013454861111111108,0,0,0.013454861111111108,66.14409722222221,0)" xlink:href="#aQ"/><use transform="matrix(0.013454861111111108,0,0,0.013454861111111108,82.68012152777777,0)" xlink:href="#aR"/></g><path d="M578-1329c0-54 51-107 104-107 57 0 106 50 106 107 0 59-47 108-106 108-53 0-104-54-104-108zM758 0H602v-907H295v-135h463V0" id="aS"/><path d="M862-668c-1-164-37-264-184-264-95 0-198 59-307 178V0H215v-1042h156v153c112-119 230-178 354-178 195 0 293 118 293 354V0H862v-668" id="aT"/><g id="J"><use transform="matrix(0.013454861111111108,0,0,0.013454861111111108,0,0)" xlink:href="#aS"/><use transform="matrix(0.013454861111111108,0,0,0.013454861111111108,16.536024305555554,0)" xlink:href="#aT"/></g><path d="M1020 0H856v-700H373V0H209v-1411h164v567h483v-567h164V0" id="aU"/><path d="M233-774c0-203 206-293 431-293 84 0 177 14 280 43l-35 131c-87-29-170-43-247-43-138-1-275 41-275 156 0 30 9 58 34 78 98 81 345 103 453 176 76 51 130 115 130 231 0 215-214 322-443 322-128 0-234-19-317-58l30-135c87 41 181 62 281 62 144 0 293-52 293-177 0-36-13-69-40-97-28-49-299-119-369-144-108-39-206-109-206-252" id="aV"/><g id="K"><use transform="matrix(0.013454861111111108,0,0,0.013454861111111108,0,0)" xlink:href="#aU"/><use transform="matrix(0.013454861111111108,0,0,0.013454861111111108,16.536024305555554,0)" xlink:href="#aS"/><use transform="matrix(0.013454861111111108,0,0,0.013454861111111108,33.07204861111111,0)" xlink:href="#aV"/></g><path d="M1061-1028c0 244-191 400-440 395H420V0H256v-1411h358c255-4 447 136 447 383zm-174 10c0-152-125-250-281-250H420v492h178c193 0 289-81 289-242" id="aW"/><path d="M145-522c0-307 172-545 469-545 296 0 469 239 469 545 0 308-172 549-469 549-298 0-469-240-469-549zm164 2c0 210 103 411 305 411 199 0 306-205 306-411 0-217-100-412-306-412-208 0-305 192-305 412" id="aX"/><path d="M145-537c0-273 140-530 396-530 131 0 237 53 317 160v-504h156V0H858v-150C803-58 673 27 532 27c-119 0-214-53-283-159S145-374 145-537zm164 9c0 205 79 415 264 415 105 0 175-59 232-128 35-43 53-69 53-78v-433c-75-120-165-180-270-180-189 1-279 200-279 404" id="aY"/><path d="M369-375c2 160 35 264 184 264 95 0 198-59 307-178v-753h156V0H860v-154C748-35 630 25 506 25 311 25 213-93 213-330v-712h156v667" id="aZ"/><path d="M592-311c-2 114 51 200 156 200 85 0 170-19 253-57l27 121C923 1 820 25 719 25c-186 0-279-98-279-295v-637H240v-135h200v-285h152v285h354v135H592v596" id="ba"/><g id="L"><use transform="matrix(0.013454861111111108,0,0,0.013454861111111108,0,0)" xlink:href="#aW"/><use transform="matrix(0.013454861111111108,0,0,0.013454861111111108,16.536024305555554,0)" xlink:href="#aP"/><use transform="matrix(0.013454861111111108,0,0,0.013454861111111108,33.07204861111111,0)" xlink:href="#aX"/><use transform="matrix(0.013454861111111108,0,0,0.013454861111111108,49.60807291666666,0)" xlink:href="#aY"/><use transform="matrix(0.013454861111111108,0,0,0.013454861111111108,66.14409722222221,0)" xlink:href="#aZ"/><use transform="matrix(0.013454861111111108,0,0,0.013454861111111108,82.68012152777777,0)" xlink:href="#aQ"/><use transform="matrix(0.013454861111111108,0,0,0.013454861111111108,99.21614583333333,0)" xlink:href="#ba"/><use transform="matrix(0.013454861111111108,0,0,0.013454861111111108,115.75217013888889,0)" xlink:href="#aV"/></g><path d="M1069 0H911v-1210L698-631H543l-213-579V0H172v-1411h213l236 643 235-643h213V0" id="bb"/><path d="M1120 0H915L473-518l-102 88V0H215v-1411h156v809l489-440h199L584-616" id="bc"/><g id="M"><use transform="matrix(0.013454861111111108,0,0,0.013454861111111108,0,0)" xlink:href="#bb"/><use transform="matrix(0.013454861111111108,0,0,0.013454861111111108,16.536024305555554,0)" xlink:href="#aO"/><use transform="matrix(0.013454861111111108,0,0,0.013454861111111108,33.07204861111111,0)" xlink:href="#bc"/><use transform="matrix(0.013454861111111108,0,0,0.013454861111111108,49.60807291666666,0)" xlink:href="#aN"/></g><path d="M612-1438c158 0 279 63 362 188s124 306 124 545c0 237-41 419-124 544S771 27 612 27c-157 0-277-62-360-187S127-467 127-705s41-420 124-545 203-188 361-188zm0 1321c208 0 312-196 312-588 0-393-104-589-312-589-101 0-175 53-232 152-102 177-101 699 0 874 57 98 130 151 232 151" id="bd"/><path d="M485-1042c-2-268 49-393 303-394 72 0 152 14 240 41l-41 127c-74-21-140-32-199-32-146 0-142 89-147 258h350v135H641V0H485v-907H223v-135h262" id="be"/><g id="N"><use transform="matrix(0.013454861111111108,0,0,0.013454861111111108,0,0)" xlink:href="#bd"/><use transform="matrix(0.013454861111111108,0,0,0.013454861111111108,16.536024305555554,0)" xlink:href="#be"/><use transform="matrix(0.013454861111111108,0,0,0.013454861111111108,33.07204861111111,0)" xlink:href="#be"/><use transform="matrix(0.013454861111111108,0,0,0.013454861111111108,49.60807291666666,0)" xlink:href="#aN"/><use transform="matrix(0.013454861111111108,0,0,0.013454861111111108,66.14409722222221,0)" xlink:href="#aP"/><use transform="matrix(0.013454861111111108,0,0,0.013454861111111108,82.68012152777777,0)" xlink:href="#aV"/></g><path d="M127-705c1-423 154-732 559-733 133-1 286 39 363 95l-54 129c-94-53-197-80-309-80-130 0-227 48-290 142s-95 243-95 447c0 392 128 588 385 588 109 0 220-33 334-100l51 129C960-11 832 27 686 27c-400 0-560-301-559-732" id="bf"/><g id="O"><use transform="matrix(0.01345486111111111,0,0,0.01345486111111111,0,0)" xlink:href="#bf"/><use transform="matrix(0.01345486111111111,0,0,0.01345486111111111,16.536024305555554,0)" xlink:href="#aX"/><use transform="matrix(0.01345486111111111,0,0,0.01345486111111111,33.07204861111111,0)" xlink:href="#aT"/><use transform="matrix(0.01345486111111111,0,0,0.01345486111111111,49.60807291666666,0)" xlink:href="#ba"/><use transform="matrix(0.01345486111111111,0,0,0.01345486111111111,66.14409722222221,0)" xlink:href="#aO"/><use transform="matrix(0.01345486111111111,0,0,0.01345486111111111,82.68012152777777,0)" xlink:href="#aQ"/><use transform="matrix(0.01345486111111111,0,0,0.01345486111111111,99.21614583333333,0)" xlink:href="#ba"/></g><path d="M1186-1411L1006 0H854L614-795 375 0H219L43-1411h162L324-264l208-694h164l209 696 121-1149h160" id="bg"/><g id="P"><use transform="matrix(0.01345486111111111,0,0,0.01345486111111111,0,0)" xlink:href="#bg"/><use transform="matrix(0.01345486111111111,0,0,0.01345486111111111,16.536024305555554,0)" xlink:href="#aS"/><use transform="matrix(0.01345486111111111,0,0,0.01345486111111111,33.07204861111111,0)" xlink:href="#ba"/><use transform="matrix(0.01345486111111111,0,0,0.01345486111111111,49.60807291666666,0)" xlink:href="#aR"/></g><path d="M686 27c-142 0-259-82-315-177v562H215v-1454h156v135c60-87 186-160 327-160 262 0 385 253 385 535 0 283-133 559-397 559zm234-551c0-208-79-408-269-408-110 0-203 60-280 180v433c47 96 147 206 274 206 186 0 275-209 275-411" id="bh"/><path d="M915-729c0 188-157 345-350 338-21 0-42-1-61-2-97 47-146 89-146 125 0 49 64 70 125 69l351-10c159-2 264 80 264 234 0 247-274 387-527 387-197 0-393-86-393-260 0-83 57-154 170-211-216-103-170-264 41-367-97-57-171-164-174-303-5-193 157-336 350-336 72 0 137 15 195 45l309-47v152H870c30 53 45 115 45 186zm-546 2c0 117 83 215 196 215 117 0 195-94 195-215 0-128-73-215-195-215-113 0-196 96-196 215zM348 68c-83 136 75 223 223 223 172 0 371-86 371-238 0-69-51-104-154-104-44 0-236 10-300 10-42 0-120 77-140 109" id="bi"/><g id="Q"><use transform="matrix(0.01345486111111111,0,0,0.01345486111111111,0,0)" xlink:href="#aM"/><use transform="matrix(0.01345486111111111,0,0,0.01345486111111111,16.536024305555554,0)" xlink:href="#aR"/><use transform="matrix(0.01345486111111111,0,0,0.01345486111111111,33.07204861111111,0)" xlink:href="#aS"/><use transform="matrix(0.01345486111111111,0,0,0.01345486111111111,49.60807291666666,0)" xlink:href="#bh"/><use transform="matrix(0.01345486111111111,0,0,0.01345486111111111,66.14409722222221,0)" xlink:href="#bh"/><use transform="matrix(0.01345486111111111,0,0,0.01345486111111111,82.68012152777777,0)" xlink:href="#aS"/><use transform="matrix(0.01345486111111111,0,0,0.01345486111111111,99.21614583333333,0)" xlink:href="#aT"/><use transform="matrix(0.01345486111111111,0,0,0.01345486111111111,115.75217013888889,0)" xlink:href="#bi"/></g><path d="M686-885c46-86 118-182 225-182 126 0 189 113 189 338V0H944v-684c6-255-92-321-196-162-38 57-56 88-56 94V0H537v-684c6-254-92-321-195-162-38 57-57 88-57 94V0H129v-1042h150v157c46-86 117-182 225-182 99 0 163 89 182 182" id="bj"/><path d="M1065-1042L670 0c-57 153-115 259-170 321-98 111-236 107-383 56l26-125c111 35 209 39 274-41 36-43 72-114 109-213L135-1042h170l295 831 295-831h170" id="bk"/><g id="R"><use transform="matrix(0.01345486111111111,0,0,0.01345486111111111,0,0)" xlink:href="#bf"/><use transform="matrix(0.01345486111111111,0,0,0.01345486111111111,16.536024305555554,0)" xlink:href="#aX"/><use transform="matrix(0.01345486111111111,0,0,0.01345486111111111,33.07204861111111,0)" xlink:href="#bj"/><use transform="matrix(0.01345486111111111,0,0,0.01345486111111111,49.60807291666666,0)" xlink:href="#bh"/><use transform="matrix(0.01345486111111111,0,0,0.01345486111111111,66.14409722222221,0)" xlink:href="#aO"/><use transform="matrix(0.01345486111111111,0,0,0.01345486111111111,82.68012152777777,0)" xlink:href="#aT"/><use transform="matrix(0.01345486111111111,0,0,0.01345486111111111,99.21614583333333,0)" xlink:href="#bk"/></g><path fill="#3a414a" d="M106-169C34-169 62-67 57 0H25v-261h32l-1 103c12-21 28-36 61-36 89 0 53 116 60 194h-32v-121c2-32-8-49-39-48" id="bl"/><path fill="#3a414a" d="M24-231v-30h32v30H24zM24 0v-190h32V0H24" id="bm"/><path fill="#3a414a" d="M115-194c55 1 70 41 70 98S169 2 115 4C84 4 66-9 55-30l1 105H24l-1-265h31l2 30c10-21 28-34 59-34zm-8 174c40 0 45-34 45-75s-6-73-45-74c-42 0-51 32-51 76 0 43 10 73 51 73" id="bn"/><path fill="#3a414a" d="M117-194c89-4 53 116 60 194h-32v-121c0-31-8-49-39-48C34-167 62-67 57 0H25l-1-190h30c1 10-1 24 2 32 11-22 29-35 61-36" id="bo"/><path fill="#3a414a" d="M177-190C167-65 218 103 67 71c-23-6-38-20-44-43l32-5c15 47 100 32 89-28v-30C133-14 115 1 83 1 29 1 15-40 15-95c0-56 16-97 71-98 29-1 48 16 59 35 1-10 0-23 2-32h30zM94-22c36 0 50-32 50-73 0-42-14-75-50-75-39 0-46 34-46 75s6 73 46 73" id="bp"/><g id="S"><use transform="matrix(0.06172839506172839,0,0,0.06172839506172839,0,0)" xlink:href="#aa"/><use transform="matrix(0.06172839506172839,0,0,0.06172839506172839,14.814814814814813,0)" xlink:href="#bl"/><use transform="matrix(0.06172839506172839,0,0,0.06172839506172839,27.160493827160494,0)" xlink:href="#bm"/><use transform="matrix(0.06172839506172839,0,0,0.06172839506172839,32.03703703703704,0)" xlink:href="#bn"/><use transform="matrix(0.06172839506172839,0,0,0.06172839506172839,44.382716049382715,0)" xlink:href="#bn"/><use transform="matrix(0.06172839506172839,0,0,0.06172839506172839,56.72839506172839,0)" xlink:href="#bm"/><use transform="matrix(0.06172839506172839,0,0,0.06172839506172839,61.60493827160494,0)" xlink:href="#bo"/><use transform="matrix(0.06172839506172839,0,0,0.06172839506172839,73.95061728395062,0)" xlink:href="#bp"/></g><path fill="#3a414a" d="M212-179c-10-28-35-45-73-45-59 0-87 40-87 99 0 60 29 101 89 101 43 0 62-24 78-52l27 14C228-24 195 4 139 4 59 4 22-46 18-125c-6-104 99-153 187-111 19 9 31 26 39 46" id="bq"/><path fill="#3a414a" d="M100-194c62-1 85 37 85 99 1 63-27 99-86 99S16-35 15-95c0-66 28-99 85-99zM99-20c44 1 53-31 53-75 0-43-8-75-51-75s-53 32-53 75 10 74 51 75" id="br"/><path fill="#3a414a" d="M210-169c-67 3-38 105-44 169h-31v-121c0-29-5-50-35-48C34-165 62-65 56 0H25l-1-190h30c1 10-1 24 2 32 10-44 99-50 107 0 11-21 27-35 58-36 85-2 47 119 55 194h-31v-121c0-29-5-49-35-48" id="bs"/><path fill="#3a414a" d="M141-36C126-15 110 5 73 4 37 3 15-17 15-53c-1-64 63-63 125-63 3-35-9-54-41-54-24 1-41 7-42 31l-33-3c5-37 33-52 76-52 45 0 72 20 72 64v82c-1 20 7 32 28 27v20c-31 9-61-2-59-35zM48-53c0 20 12 33 32 33 41-3 63-29 60-74-43 2-92-5-92 41" id="bt"/><path fill="#3a414a" d="M179-190L93 31C79 59 56 82 12 73V49c39 6 53-20 64-50L1-190h34L92-34l54-156h33" id="bu"/><g id="T"><use transform="matrix(0.06172839506172839,0,0,0.06172839506172839,0,0)" xlink:href="#bq"/><use transform="matrix(0.06172839506172839,0,0,0.06172839506172839,15.987654320987653,0)" xlink:href="#br"/><use transform="matrix(0.06172839506172839,0,0,0.06172839506172839,28.333333333333332,0)" xlink:href="#bs"/><use transform="matrix(0.06172839506172839,0,0,0.06172839506172839,46.79012345679012,0)" xlink:href="#bn"/><use transform="matrix(0.06172839506172839,0,0,0.06172839506172839,59.1358024691358,0)" xlink:href="#bt"/><use transform="matrix(0.06172839506172839,0,0,0.06172839506172839,71.48148148148148,0)" xlink:href="#bo"/><use transform="matrix(0.06172839506172839,0,0,0.06172839506172839,83.82716049382717,0)" xlink:href="#bu"/></g><g id="U"><use transform="matrix(0.07469135802469135,0,0,0.07469135802469135,0,0)" xlink:href="#ap"/><use transform="matrix(0.07469135802469135,0,0,0.07469135802469135,19.34506172839506,0)" xlink:href="#aq"/><use transform="matrix(0.07469135802469135,0,0,0.07469135802469135,34.28333333333333,0)" xlink:href="#ag"/><use transform="matrix(0.07469135802469135,0,0,0.07469135802469135,49.2216049382716,0)" xlink:href="#as"/><use transform="matrix(0.07469135802469135,0,0,0.07469135802469135,62.66604938271604,0)" xlink:href="#ai"/><use transform="matrix(0.07469135802469135,0,0,0.07469135802469135,77.6043209876543,0)" xlink:href="#aA"/></g><g id="V"><use transform="matrix(0.07469135802469135,0,0,0.07469135802469135,0,0)" xlink:href="#aH"/><use transform="matrix(0.07469135802469135,0,0,0.07469135802469135,20.913580246913575,0)" xlink:href="#al"/><use transform="matrix(0.07469135802469135,0,0,0.07469135802469135,29.801851851851843,0)" xlink:href="#ax"/><use transform="matrix(0.07469135802469135,0,0,0.07469135802469135,44.740123456790116,0)" xlink:href="#ai"/><use transform="matrix(0.07469135802469135,0,0,0.07469135802469135,59.678395061728374,0)" xlink:href="#al"/></g></defs></g></svg>