<?xml version="1.0" encoding="us-ascii" standalone="no"?><svg xmlns="http://www.w3.org/2000/svg" xmlns:xlink="http://www.w3.org/1999/xlink" contentStyleType="text/css" height="756px" preserveAspectRatio="none" style="width:646px;height:756px;background:#FFFFFF;" version="1.1" viewBox="0 0 646 756" width="646px" zoomAndPan="magnify"><defs/><g><rect fill="#FFFFFF" height="556" style="stroke:#181818;stroke-width:1.0;" width="10" x="263.5" y="125.6953"/><rect fill="#FFFFFF" height="289" style="stroke:#181818;stroke-width:1.0;" width="10" x="337.5" y="392.6953"/><rect fill="#FFFFFF" height="478.6016" style="stroke:#181818;stroke-width:1.0;" width="10" x="478.5" y="203.0938"/><rect fill="#ADD8E6" height="235.8672" style="stroke:#000000;stroke-width:1.5;" width="504.5" x="30" y="164.8281"/><rect fill="#FFC0CB" height="131.3359" style="stroke:none;stroke-width:1.0;" width="504.5" x="30" y="269.3594"/><rect fill="#ADD8E6" height="206.7344" style="stroke:#000000;stroke-width:1.5;" width="504.5" x="30" y="467.9609"/><rect fill="#FFC0CB" height="102.2031" style="stroke:none;stroke-width:1.0;" width="504.5" x="30" y="572.4922"/><line style="stroke:#181818;stroke-width:0.5;stroke-dasharray:5.0,5.0;" x1="62" x2="62" y1="36.2969" y2="720.8281"/><line style="stroke:#181818;stroke-width:0.5;stroke-dasharray:5.0,5.0;" x1="268" x2="268" y1="36.2969" y2="720.8281"/><line style="stroke:#181818;stroke-width:0.5;stroke-dasharray:5.0,5.0;" x1="342" x2="342" y1="36.2969" y2="720.8281"/><line style="stroke:#181818;stroke-width:0.5;stroke-dasharray:5.0,5.0;" x1="483.5" x2="483.5" y1="36.2969" y2="720.8281"/><line style="stroke:#181818;stroke-width:0.5;stroke-dasharray:5.0,5.0;" x1="587.5" x2="587.5" y1="36.2969" y2="720.8281"/><rect fill="#E2E2F0" height="30.2969" rx="2.5" ry="2.5" style="stroke:#181818;stroke-width:0.5;" width="45" x="40" y="5"/><text fill="#000000" font-family="sans-serif" font-size="14" lengthAdjust="spacing" textLength="31" x="47" y="24.9951">User</text><rect fill="#E2E2F0" height="30.2969" rx="2.5" ry="2.5" style="stroke:#181818;stroke-width:0.5;" width="45" x="40" y="719.8281"/><text fill="#000000" font-family="sans-serif" font-size="14" lengthAdjust="spacing" textLength="31" x="47" y="739.8232">User</text><rect fill="#E2E2F0" height="30.2969" rx="2.5" ry="2.5" style="stroke:#181818;stroke-width:0.5;" width="53" x="242" y="5"/><text fill="#000000" font-family="sans-serif" font-size="14" lengthAdjust="spacing" textLength="39" x="249" y="24.9951">Login</text><rect fill="#E2E2F0" height="30.2969" rx="2.5" ry="2.5" style="stroke:#181818;stroke-width:0.5;" width="53" x="242" y="719.8281"/><text fill="#000000" font-family="sans-serif" font-size="14" lengthAdjust="spacing" textLength="39" x="249" y="739.8232">Login</text><rect fill="#E2E2F0" height="30.2969" rx="2.5" ry="2.5" style="stroke:#181818;stroke-width:0.5;" width="75" x="305" y="5"/><text fill="#000000" font-family="sans-serif" font-size="14" lengthAdjust="spacing" textLength="61" x="312" y="24.9951">Register</text><rect fill="#E2E2F0" height="30.2969" rx="2.5" ry="2.5" style="stroke:#181818;stroke-width:0.5;" width="75" x="305" y="719.8281"/><text fill="#000000" font-family="sans-serif" font-size="14" lengthAdjust="spacing" textLength="61" x="312" y="739.8232">Register</text><rect fill="#E2E2F0" height="30.2969" rx="2.5" ry="2.5" style="stroke:#181818;stroke-width:0.5;" width="82" x="442.5" y="5"/><text fill="#000000" font-family="sans-serif" font-size="14" lengthAdjust="spacing" textLength="68" x="449.5" y="24.9951">Database</text><rect fill="#E2E2F0" height="30.2969" rx="2.5" ry="2.5" style="stroke:#181818;stroke-width:0.5;" width="82" x="442.5" y="719.8281"/><text fill="#000000" font-family="sans-serif" font-size="14" lengthAdjust="spacing" textLength="68" x="449.5" y="739.8232">Database</text><rect fill="#E2E2F0" height="30.2969" rx="2.5" ry="2.5" style="stroke:#181818;stroke-width:0.5;" width="106" x="534.5" y="5"/><text fill="#000000" font-family="sans-serif" font-size="14" lengthAdjust="spacing" textLength="92" x="541.5" y="24.9951">HomeScreen</text><rect fill="#E2E2F0" height="30.2969" rx="2.5" ry="2.5" style="stroke:#181818;stroke-width:0.5;" width="106" x="534.5" y="719.8281"/><text fill="#000000" font-family="sans-serif" font-size="14" lengthAdjust="spacing" textLength="92" x="541.5" y="739.8232">HomeScreen</text><rect fill="#FFFFFF" height="556" style="stroke:#181818;stroke-width:1.0;" width="10" x="263.5" y="125.6953"/><rect fill="#FFFFFF" height="289" style="stroke:#181818;stroke-width:1.0;" width="10" x="337.5" y="392.6953"/><rect fill="#FFFFFF" height="478.6016" style="stroke:#181818;stroke-width:1.0;" width="10" x="478.5" y="203.0938"/><polygon fill="#181818" points="256.5,63.4297,266.5,67.4297,256.5,71.4297,260.5,67.4297" style="stroke:#181818;stroke-width:1.0;"/><line style="stroke:#181818;stroke-width:1.0;" x1="62.5" x2="262.5" y1="67.4297" y2="67.4297"/><text fill="#000000" font-family="sans-serif" font-size="13" font-weight="bold" lengthAdjust="spacing" textLength="9" x="69.5" y="62.3638">1</text><text fill="#000000" font-family="sans-serif" font-size="13" lengthAdjust="spacing" textLength="109" x="82.5" y="62.3638">Enter User Name</text><polygon fill="#181818" points="256.5,92.5625,266.5,96.5625,256.5,100.5625,260.5,96.5625" style="stroke:#181818;stroke-width:1.0;"/><line style="stroke:#181818;stroke-width:1.0;" x1="62.5" x2="262.5" y1="96.5625" y2="96.5625"/><text fill="#000000" font-family="sans-serif" font-size="13" font-weight="bold" lengthAdjust="spacing" textLength="9" x="69.5" y="91.4966">2</text><text fill="#000000" font-family="sans-serif" font-size="13" lengthAdjust="spacing" textLength="100" x="82.5" y="91.4966">Enter Password</text><polygon fill="#181818" points="251.5,121.6953,261.5,125.6953,251.5,129.6953,255.5,125.6953" style="stroke:#181818;stroke-width:1.0;"/><line style="stroke:#181818;stroke-width:1.0;" x1="62.5" x2="257.5" y1="125.6953" y2="125.6953"/><text fill="#000000" font-family="sans-serif" font-size="13" font-weight="bold" lengthAdjust="spacing" textLength="8" x="69.5" y="120.6294">3</text><text fill="#000000" font-family="sans-serif" font-size="13" lengthAdjust="spacing" textLength="45" x="81.5" y="120.6294">Submit</text><path d="M30,164.8281 L96,164.8281 L96,171.9609 L86,181.9609 L30,181.9609 L30,164.8281 " fill="#FFD700" style="stroke:#000000;stroke-width:1.5;"/><rect fill="none" height="235.8672" style="stroke:#000000;stroke-width:1.5;" width="504.5" x="30" y="164.8281"/><text fill="#000000" font-family="sans-serif" font-size="13" font-weight="bold" lengthAdjust="spacing" textLength="21" x="45" y="177.895">alt</text><text fill="#000000" font-family="sans-serif" font-size="11" font-weight="bold" lengthAdjust="spacing" textLength="155" x="111" y="177.0386">[Successful case Login]</text><polygon fill="#181818" points="466.5,199.0938,476.5,203.0938,466.5,207.0938,470.5,203.0938" style="stroke:#181818;stroke-width:1.0;"/><line style="stroke:#181818;stroke-width:1.0;" x1="273.5" x2="472.5" y1="203.0938" y2="203.0938"/><text fill="#000000" font-family="sans-serif" font-size="13" font-weight="bold" lengthAdjust="spacing" textLength="9" x="280.5" y="198.0278">4</text><text fill="#000000" font-family="sans-serif" font-size="13" lengthAdjust="spacing" textLength="85" x="293.5" y="198.0278">Validate User</text><polygon fill="#181818" points="284.5,228.2266,274.5,232.2266,284.5,236.2266,280.5,232.2266" style="stroke:#181818;stroke-width:1.0;"/><line style="stroke:#181818;stroke-width:1.0;stroke-dasharray:2.0,2.0;" x1="278.5" x2="477.5" y1="232.2266" y2="232.2266"/><text fill="#000000" font-family="sans-serif" font-size="13" font-weight="bold" lengthAdjust="spacing" textLength="9" x="290.5" y="227.1606">5</text><text fill="#000000" font-family="sans-serif" font-size="13" lengthAdjust="spacing" textLength="31" x="303.5" y="227.1606">Valid</text><polygon fill="#181818" points="73.5,257.3594,63.5,261.3594,73.5,265.3594,69.5,261.3594" style="stroke:#181818;stroke-width:1.0;"/><line style="stroke:#181818;stroke-width:1.0;stroke-dasharray:2.0,2.0;" x1="67.5" x2="262.5" y1="261.3594" y2="261.3594"/><text fill="#000000" font-family="sans-serif" font-size="13" font-weight="bold" lengthAdjust="spacing" textLength="9" x="79.5" y="256.2935">6</text><text fill="#000000" font-family="sans-serif" font-size="13" lengthAdjust="spacing" textLength="156" x="92.5" y="256.2935">redirect to Home Screen</text><line style="stroke:#000000;stroke-width:1.0;stroke-dasharray:2.0,2.0;" x1="30" x2="534.5" y1="270.3594" y2="270.3594"/><text fill="#000000" font-family="sans-serif" font-size="11" font-weight="bold" lengthAdjust="spacing" textLength="171" x="35" y="280.5698">[unSuccessful case Login]</text><polygon fill="#181818" points="466.5,301.2969,476.5,305.2969,466.5,309.2969,470.5,305.2969" style="stroke:#181818;stroke-width:1.0;"/><line style="stroke:#181818;stroke-width:1.0;" x1="273.5" x2="472.5" y1="305.2969" y2="305.2969"/><text fill="#000000" font-family="sans-serif" font-size="13" font-weight="bold" lengthAdjust="spacing" textLength="9" x="280.5" y="300.231">7</text><text fill="#000000" font-family="sans-serif" font-size="13" lengthAdjust="spacing" textLength="85" x="293.5" y="300.231">Validate User</text><polygon fill="#181818" points="284.5,330.4297,274.5,334.4297,284.5,338.4297,280.5,334.4297" style="stroke:#181818;stroke-width:1.0;"/><line style="stroke:#181818;stroke-width:1.0;stroke-dasharray:2.0,2.0;" x1="278.5" x2="477.5" y1="334.4297" y2="334.4297"/><text fill="#000000" font-family="sans-serif" font-size="13" font-weight="bold" lengthAdjust="spacing" textLength="9" x="290.5" y="329.3638">8</text><text fill="#000000" font-family="sans-serif" font-size="13" lengthAdjust="spacing" textLength="41" x="303.5" y="329.3638">Invalid</text><polygon fill="#181818" points="73.5,359.5625,63.5,363.5625,73.5,367.5625,69.5,363.5625" style="stroke:#181818;stroke-width:1.0;"/><line style="stroke:#181818;stroke-width:1.0;stroke-dasharray:2.0,2.0;" x1="67.5" x2="262.5" y1="363.5625" y2="363.5625"/><text fill="#000000" font-family="sans-serif" font-size="13" font-weight="bold" lengthAdjust="spacing" textLength="9" x="79.5" y="358.4966">9</text><text fill="#000000" font-family="sans-serif" font-size="13" lengthAdjust="spacing" textLength="164" x="92.5" y="358.4966">ReDirect To Registeration</text><polygon fill="#181818" points="325.5,388.6953,335.5,392.6953,325.5,396.6953,329.5,392.6953" style="stroke:#181818;stroke-width:1.0;"/><line style="stroke:#181818;stroke-width:1.0;" x1="62.5" x2="331.5" y1="392.6953" y2="392.6953"/><text fill="#000000" font-family="sans-serif" font-size="13" font-weight="bold" lengthAdjust="spacing" textLength="19" x="69.5" y="387.6294">10</text><text fill="#000000" font-family="sans-serif" font-size="13" lengthAdjust="spacing" textLength="99" x="92.5" y="387.6294">Create Account</text><polygon fill="#181818" points="575.5,424.8281,585.5,428.8281,575.5,432.8281,579.5,428.8281" style="stroke:#181818;stroke-width:1.0;"/><line style="stroke:#181818;stroke-width:1.0;" x1="62.5" x2="581.5" y1="428.8281" y2="428.8281"/><text fill="#000000" font-family="sans-serif" font-size="13" font-weight="bold" lengthAdjust="spacing" textLength="18" x="69.5" y="423.7622">11</text><text fill="#000000" font-family="sans-serif" font-size="13" lengthAdjust="spacing" textLength="63" x="91.5" y="423.7622">valid User</text><path d="M30,467.9609 L96,467.9609 L96,475.0938 L86,485.0938 L30,485.0938 L30,467.9609 " fill="#FFD700" style="stroke:#000000;stroke-width:1.5;"/><rect fill="none" height="206.7344" style="stroke:#000000;stroke-width:1.5;" width="504.5" x="30" y="467.9609"/><text fill="#000000" font-family="sans-serif" font-size="13" font-weight="bold" lengthAdjust="spacing" textLength="21" x="45" y="481.0278">alt</text><text fill="#000000" font-family="sans-serif" font-size="11" font-weight="bold" lengthAdjust="spacing" textLength="175" x="111" y="480.1714">[Successful case Register]</text><polygon fill="#181818" points="466.5,502.2266,476.5,506.2266,466.5,510.2266,470.5,506.2266" style="stroke:#181818;stroke-width:1.0;"/><line style="stroke:#181818;stroke-width:1.0;" x1="347.5" x2="472.5" y1="506.2266" y2="506.2266"/><text fill="#000000" font-family="sans-serif" font-size="13" font-weight="bold" lengthAdjust="spacing" textLength="18" x="354.5" y="501.1606">12</text><text fill="#000000" font-family="sans-serif" font-size="13" lengthAdjust="spacing" textLength="85" x="376.5" y="501.1606">Validate User</text><polygon fill="#181818" points="358.5,531.3594,348.5,535.3594,358.5,539.3594,354.5,535.3594" style="stroke:#181818;stroke-width:1.0;"/><line style="stroke:#181818;stroke-width:1.0;stroke-dasharray:2.0,2.0;" x1="352.5" x2="477.5" y1="535.3594" y2="535.3594"/><text fill="#000000" font-family="sans-serif" font-size="13" font-weight="bold" lengthAdjust="spacing" textLength="17" x="364.5" y="530.2935">13</text><text fill="#000000" font-family="sans-serif" font-size="13" lengthAdjust="spacing" textLength="31" x="385.5" y="530.2935">Valid</text><polygon fill="#181818" points="73.5,560.4922,63.5,564.4922,73.5,568.4922,69.5,564.4922" style="stroke:#181818;stroke-width:1.0;"/><line style="stroke:#181818;stroke-width:1.0;stroke-dasharray:2.0,2.0;" x1="67.5" x2="336.5" y1="564.4922" y2="564.4922"/><text fill="#000000" font-family="sans-serif" font-size="13" font-weight="bold" lengthAdjust="spacing" textLength="18" x="79.5" y="559.4263">14</text><text fill="#000000" font-family="sans-serif" font-size="13" lengthAdjust="spacing" textLength="156" x="101.5" y="559.4263">redirect to Home Screen</text><line style="stroke:#000000;stroke-width:1.0;stroke-dasharray:2.0,2.0;" x1="30" x2="534.5" y1="573.4922" y2="573.4922"/><text fill="#000000" font-family="sans-serif" font-size="11" font-weight="bold" lengthAdjust="spacing" textLength="191" x="35" y="583.7026">[unSuccessful case Register]</text><polygon fill="#181818" points="466.5,604.4297,476.5,608.4297,466.5,612.4297,470.5,608.4297" style="stroke:#181818;stroke-width:1.0;"/><line style="stroke:#181818;stroke-width:1.0;" x1="347.5" x2="472.5" y1="608.4297" y2="608.4297"/><text fill="#000000" font-family="sans-serif" font-size="13" font-weight="bold" lengthAdjust="spacing" textLength="18" x="354.5" y="603.3638">15</text><text fill="#000000" font-family="sans-serif" font-size="13" lengthAdjust="spacing" textLength="85" x="376.5" y="603.3638">Validate User</text><polygon fill="#181818" points="358.5,633.5625,348.5,637.5625,358.5,641.5625,354.5,637.5625" style="stroke:#181818;stroke-width:1.0;"/><line style="stroke:#181818;stroke-width:1.0;stroke-dasharray:2.0,2.0;" x1="352.5" x2="477.5" y1="637.5625" y2="637.5625"/><text fill="#000000" font-family="sans-serif" font-size="13" font-weight="bold" lengthAdjust="spacing" textLength="18" x="364.5" y="632.4966">16</text><text fill="#000000" font-family="sans-serif" font-size="13" lengthAdjust="spacing" textLength="41" x="386.5" y="632.4966">Invalid</text><polygon fill="#181818" points="73.5,662.6953,63.5,666.6953,73.5,670.6953,69.5,666.6953" style="stroke:#181818;stroke-width:1.0;"/><line style="stroke:#181818;stroke-width:1.0;stroke-dasharray:2.0,2.0;" x1="67.5" x2="336.5" y1="666.6953" y2="666.6953"/><text fill="#000000" font-family="sans-serif" font-size="13" font-weight="bold" lengthAdjust="spacing" textLength="18" x="79.5" y="661.6294">17</text><text fill="#000000" font-family="sans-serif" font-size="13" lengthAdjust="spacing" textLength="113" x="101.5" y="661.6294">ReDirect To Login</text><polygon fill="#181818" points="575.5,698.8281,585.5,702.8281,575.5,706.8281,579.5,702.8281" style="stroke:#181818;stroke-width:1.0;"/><line style="stroke:#181818;stroke-width:1.0;" x1="62.5" x2="581.5" y1="702.8281" y2="702.8281"/><text fill="#000000" font-family="sans-serif" font-size="13" font-weight="bold" lengthAdjust="spacing" textLength="18" x="69.5" y="697.7622">18</text><text fill="#000000" font-family="sans-serif" font-size="13" lengthAdjust="spacing" textLength="63" x="91.5" y="697.7622">valid User</text><!--SRC=[xLPDRzf04BtlhnY9G-40j4bRLJv4RKAQDZ8Lmi1zMK-SLUnTTp-8-kyxjc5j6aZedPFnxCoRntkp8xzxTAwqqNXSvbmvN-GZeOknnTyUbS1XAdbcUC4OzquhNwpHi98R9uKiAH-M5WtiHMATIRKNcMCchVitRy8TNtEBUy4Vki1464J56AknXrSD8aHmgogGElgB5mX74cRSscTjqfVdYLyNqW7ZmiaDTxZboZAZVKdXtFNkT9v2BvRPexlEFLA946ZjWyz14Daj56iU1Btx5uI-uhbCAzH6az0afB3mQzWXLPS5H3geooCmc4g3me7JjImGTC6S87epgPx0guC4AUbjXd24q4-rEK9fZfE6qa87KxcJMhLI1wyZk35OzVecXFQggtex3mnLslhSca_L3OT6ojSCUk7G3fs5Dg-AiAz1X_xMbnRbFwqvu4sWnauaTuHTnwD3zBesRUUr5Zh5_S67RYHmwyJ25Jt18iQ-KWzFc-AyAiwhuhmgpglYX5KngxuvbjCODcXiDHmVHXVlBov7bsjq_5D_gPwKVbP0NoIbp16SB730-dUp6ApsHY2aHCJ8jQycQy3k-OR3d2Q8yYAetlgBwG2IsrsGhlr66gqAL8xThwPD4b5rIQbTdVpvu_2QBdw2XZZ1Qiec-C1zxgXKw5IgB8Bbullm2ukvoZpFg17PULFDhVb3PybV]--></g></svg>